solid 
 facet normal  0.000000e+00  1.000000e+00  0.000000e+00
   outer loop
     vertex  1.450000e+02  0.000000e+00  1.250000e+01
     vertex -1.425000e+02  0.000000e+00 -1.250000e+01
     vertex -1.450000e+02  0.000000e+00  1.250000e+01
   endloop
 endfacet
 facet normal  0.000000e+00  1.000000e+00 -0.000000e+00
   outer loop
     vertex  1.425000e+02  0.000000e+00 -1.250000e+01
     vertex -1.425000e+02  0.000000e+00 -1.250000e+01
     vertex  1.450000e+02  0.000000e+00  1.250000e+01
   endloop
 endfacet
 facet normal  0.000000e+00  0.000000e+00 -1.000000e+00
   outer loop
     vertex -1.425000e+02 -2.000000e+00 -1.250000e+01
     vertex  1.425000e+02  0.000000e+00 -1.250000e+01
     vertex  1.425000e+02 -2.000000e+00 -1.250000e+01
   endloop
 endfacet
 facet normal  0.000000e+00  0.000000e+00 -1.000000e+00
   outer loop
     vertex -1.425000e+02  0.000000e+00 -1.250000e+01
     vertex  1.425000e+02  0.000000e+00 -1.250000e+01
     vertex -1.425000e+02 -2.000000e+00 -1.250000e+01
   endloop
 endfacet
 facet normal  9.950372e-01  0.000000e+00 -9.950372e-02
   outer loop
     vertex  1.425000e+02 -2.000000e+00 -1.250000e+01
     vertex  1.450000e+02  0.000000e+00  1.250000e+01
     vertex  1.450000e+02 -2.000000e+00  1.250000e+01
   endloop
 endfacet
 facet normal  9.950372e-01  0.000000e+00 -9.950372e-02
   outer loop
     vertex  1.425000e+02 -2.000000e+00 -1.250000e+01
     vertex  1.425000e+02  0.000000e+00 -1.250000e+01
     vertex  1.450000e+02  0.000000e+00  1.250000e+01
   endloop
 endfacet
 facet normal  0.000000e+00  0.000000e+00  1.000000e+00
   outer loop
     vertex -1.450000e+02 -2.000000e+00  1.250000e+01
     vertex  1.450000e+02 -2.000000e+00  1.250000e+01
     vertex  1.450000e+02  0.000000e+00  1.250000e+01
   endloop
 endfacet
 facet normal -0.000000e+00  0.000000e+00  1.000000e+00
   outer loop
     vertex -1.450000e+02  0.000000e+00  1.250000e+01
     vertex -1.450000e+02 -2.000000e+00  1.250000e+01
     vertex  1.450000e+02  0.000000e+00  1.250000e+01
   endloop
 endfacet
 facet normal -9.950372e-01  0.000000e+00 -9.950372e-02
   outer loop
     vertex -1.425000e+02 -2.000000e+00 -1.250000e+01
     vertex -1.450000e+02 -2.000000e+00  1.250000e+01
     vertex -1.450000e+02  0.000000e+00  1.250000e+01
   endloop
 endfacet
 facet normal -9.950372e-01  0.000000e+00 -9.950372e-02
   outer loop
     vertex -1.425000e+02 -2.000000e+00 -1.250000e+01
     vertex -1.450000e+02  0.000000e+00  1.250000e+01
     vertex -1.425000e+02  0.000000e+00 -1.250000e+01
   endloop
 endfacet
 facet normal  0.000000e+00 -1.000000e+00  0.000000e+00
   outer loop
     vertex  1.377500e+02 -2.000000e+00 -2.500000e+00
     vertex  1.450000e+02 -2.000000e+00  1.250000e+01
     vertex  1.377500e+02 -2.000000e+00  2.500000e+00
   endloop
 endfacet
 facet normal  0.000000e+00 -1.000000e+00  0.000000e+00
   outer loop
     vertex  1.327500e+02 -2.000000e+00  2.500000e+00
     vertex  1.377500e+02 -2.000000e+00  2.500000e+00
     vertex  1.450000e+02 -2.000000e+00  1.250000e+01
   endloop
 endfacet
 facet normal  0.000000e+00 -1.000000e+00  0.000000e+00
   outer loop
     vertex  1.425000e+02 -2.000000e+00 -1.250000e+01
     vertex  1.377500e+02 -2.000000e+00 -2.500000e+00
     vertex  1.327500e+02 -2.000000e+00 -2.500000e+00
   endloop
 endfacet
 facet normal  0.000000e+00 -1.000000e+00  0.000000e+00
   outer loop
     vertex  1.425000e+02 -2.000000e+00 -1.250000e+01
     vertex  1.450000e+02 -2.000000e+00  1.250000e+01
     vertex  1.377500e+02 -2.000000e+00 -2.500000e+00
   endloop
 endfacet
 facet normal  0.000000e+00 -1.000000e+00  0.000000e+00
   outer loop
     vertex -1.450000e+02 -2.000000e+00  1.250000e+01
     vertex -1.327500e+02 -2.000000e+00  2.500000e+00
     vertex  1.327500e+02 -2.000000e+00  2.500000e+00
   endloop
 endfacet
 facet normal  0.000000e+00 -1.000000e+00  0.000000e+00
   outer loop
     vertex -1.450000e+02 -2.000000e+00  1.250000e+01
     vertex  1.327500e+02 -2.000000e+00  2.500000e+00
     vertex  1.450000e+02 -2.000000e+00  1.250000e+01
   endloop
 endfacet
 facet normal  0.000000e+00 -1.000000e+00  0.000000e+00
   outer loop
     vertex -1.327500e+02 -2.000000e+00 -2.500000e+00
     vertex  1.327500e+02 -2.000000e+00 -2.500000e+00
     vertex  1.327500e+02 -2.000000e+00  2.500000e+00
   endloop
 endfacet
 facet normal  0.000000e+00 -1.000000e+00  0.000000e+00
   outer loop
     vertex -1.327500e+02 -2.000000e+00 -2.500000e+00
     vertex  1.327500e+02 -2.000000e+00  2.500000e+00
     vertex -1.327500e+02 -2.000000e+00  2.500000e+00
   endloop
 endfacet
 facet normal  0.000000e+00 -1.000000e+00  0.000000e+00
   outer loop
     vertex -1.377500e+02 -2.000000e+00  2.500000e+00
     vertex -1.327500e+02 -2.000000e+00  2.500000e+00
     vertex -1.450000e+02 -2.000000e+00  1.250000e+01
   endloop
 endfacet
 facet normal  0.000000e+00 -1.000000e+00  0.000000e+00
   outer loop
     vertex -1.377500e+02 -2.000000e+00 -2.500000e+00
     vertex -1.377500e+02 -2.000000e+00  2.500000e+00
     vertex -1.450000e+02 -2.000000e+00  1.250000e+01
   endloop
 endfacet
 facet normal  0.000000e+00 -1.000000e+00  0.000000e+00
   outer loop
     vertex -1.425000e+02 -2.000000e+00 -1.250000e+01
     vertex -1.327500e+02 -2.000000e+00 -2.500000e+00
     vertex -1.377500e+02 -2.000000e+00 -2.500000e+00
   endloop
 endfacet
 facet normal  0.000000e+00 -1.000000e+00  0.000000e+00
   outer loop
     vertex -1.425000e+02 -2.000000e+00 -1.250000e+01
     vertex -1.377500e+02 -2.000000e+00 -2.500000e+00
     vertex -1.450000e+02 -2.000000e+00  1.250000e+01
   endloop
 endfacet
 facet normal  0.000000e+00 -1.000000e+00  0.000000e+00
   outer loop
     vertex -1.425000e+02 -2.000000e+00 -1.250000e+01
     vertex  1.425000e+02 -2.000000e+00 -1.250000e+01
     vertex  1.327500e+02 -2.000000e+00 -2.500000e+00
   endloop
 endfacet
 facet normal  0.000000e+00 -1.000000e+00  0.000000e+00
   outer loop
     vertex -1.425000e+02 -2.000000e+00 -1.250000e+01
     vertex  1.327500e+02 -2.000000e+00 -2.500000e+00
     vertex -1.327500e+02 -2.000000e+00 -2.500000e+00
   endloop
 endfacet
 facet normal -0.000000e+00  0.000000e+00 -1.000000e+00
   outer loop
     vertex  1.377500e+02 -7.000000e+00 -2.500000e+00
     vertex  1.327500e+02 -1.000000e+01 -2.500000e+00
     vertex  1.327500e+02 -2.000000e+00 -2.500000e+00
   endloop
 endfacet
 facet normal  0.000000e+00 -0.000000e+00 -1.000000e+00
   outer loop
     vertex  1.377500e+02 -7.000000e+00 -2.500000e+00
     vertex  1.407500e+02 -1.000000e+01 -2.500000e+00
     vertex  1.327500e+02 -1.000000e+01 -2.500000e+00
   endloop
 endfacet
 facet normal -0.000000e+00 -0.000000e+00 -1.000000e+00
   outer loop
     vertex  1.377500e+02 -2.000000e+00 -2.500000e+00
     vertex  1.377500e+02 -7.000000e+00 -2.500000e+00
     vertex  1.327500e+02 -2.000000e+00 -2.500000e+00
   endloop
 endfacet
 facet normal  1.000000e+00  0.000000e+00  0.000000e+00
   outer loop
     vertex  1.377500e+02 -2.000000e+00 -2.500000e+00
     vertex  1.377500e+02 -7.000000e+00  2.500000e+00
     vertex  1.377500e+02 -7.000000e+00 -2.500000e+00
   endloop
 endfacet
 facet normal  1.000000e+00  0.000000e+00 -0.000000e+00
   outer loop
     vertex  1.377500e+02 -2.000000e+00 -2.500000e+00
     vertex  1.377500e+02 -2.000000e+00  2.500000e+00
     vertex  1.377500e+02 -7.000000e+00  2.500000e+00
   endloop
 endfacet
 facet normal  0.000000e+00  0.000000e+00  1.000000e+00
   outer loop
     vertex  1.377500e+02 -7.000000e+00  2.500000e+00
     vertex  1.327500e+02 -2.000000e+00  2.500000e+00
     vertex  1.327500e+02 -1.000000e+01  2.500000e+00
   endloop
 endfacet
 facet normal  0.000000e+00  0.000000e+00  1.000000e+00
   outer loop
     vertex  1.377500e+02 -7.000000e+00  2.500000e+00
     vertex  1.327500e+02 -1.000000e+01  2.500000e+00
     vertex  1.407500e+02 -1.000000e+01  2.500000e+00
   endloop
 endfacet
 facet normal  0.000000e+00  0.000000e+00  1.000000e+00
   outer loop
     vertex  1.377500e+02 -2.000000e+00  2.500000e+00
     vertex  1.327500e+02 -2.000000e+00  2.500000e+00
     vertex  1.377500e+02 -7.000000e+00  2.500000e+00
   endloop
 endfacet
 facet normal -1.000000e+00  0.000000e+00  0.000000e+00
   outer loop
     vertex  1.327500e+02 -1.000000e+01 -2.500000e+00
     vertex  1.327500e+02 -2.000000e+00  2.500000e+00
     vertex  1.327500e+02 -2.000000e+00 -2.500000e+00
   endloop
 endfacet
 facet normal -1.000000e+00  0.000000e+00  0.000000e+00
   outer loop
     vertex  1.327500e+02 -1.000000e+01 -2.500000e+00
     vertex  1.327500e+02 -1.000000e+01  2.500000e+00
     vertex  1.327500e+02 -2.000000e+00  2.500000e+00
   endloop
 endfacet
 facet normal  1.000000e+00  0.000000e+00  0.000000e+00
   outer loop
     vertex -1.327500e+02 -1.000000e+01 -2.500000e+00
     vertex -1.327500e+02 -2.000000e+00 -2.500000e+00
     vertex -1.327500e+02 -2.000000e+00  2.500000e+00
   endloop
 endfacet
 facet normal  1.000000e+00  0.000000e+00  0.000000e+00
   outer loop
     vertex -1.327500e+02 -1.000000e+01 -2.500000e+00
     vertex -1.327500e+02 -2.000000e+00  2.500000e+00
     vertex -1.327500e+02 -1.000000e+01  2.500000e+00
   endloop
 endfacet
 facet normal  0.000000e+00  0.000000e+00 -1.000000e+00
   outer loop
     vertex -1.377500e+02 -7.000000e+00 -2.500000e+00
     vertex -1.327500e+02 -2.000000e+00 -2.500000e+00
     vertex -1.327500e+02 -1.000000e+01 -2.500000e+00
   endloop
 endfacet
 facet normal  0.000000e+00 -0.000000e+00 -1.000000e+00
   outer loop
     vertex -1.377500e+02 -7.000000e+00 -2.500000e+00
     vertex -1.327500e+02 -1.000000e+01 -2.500000e+00
     vertex -1.407500e+02 -1.000000e+01 -2.500000e+00
   endloop
 endfacet
 facet normal  0.000000e+00  0.000000e+00 -1.000000e+00
   outer loop
     vertex -1.377500e+02 -2.000000e+00 -2.500000e+00
     vertex -1.327500e+02 -2.000000e+00 -2.500000e+00
     vertex -1.377500e+02 -7.000000e+00 -2.500000e+00
   endloop
 endfacet
 facet normal -0.000000e+00  0.000000e+00  1.000000e+00
   outer loop
     vertex -1.377500e+02 -7.000000e+00  2.500000e+00
     vertex -1.327500e+02 -1.000000e+01  2.500000e+00
     vertex -1.327500e+02 -2.000000e+00  2.500000e+00
   endloop
 endfacet
 facet normal  0.000000e+00  0.000000e+00  1.000000e+00
   outer loop
     vertex -1.377500e+02 -7.000000e+00  2.500000e+00
     vertex -1.407500e+02 -1.000000e+01  2.500000e+00
     vertex -1.327500e+02 -1.000000e+01  2.500000e+00
   endloop
 endfacet
 facet normal -0.000000e+00  0.000000e+00  1.000000e+00
   outer loop
     vertex -1.377500e+02 -2.000000e+00  2.500000e+00
     vertex -1.377500e+02 -7.000000e+00  2.500000e+00
     vertex -1.327500e+02 -2.000000e+00  2.500000e+00
   endloop
 endfacet
 facet normal -1.000000e+00  0.000000e+00  0.000000e+00
   outer loop
     vertex -1.377500e+02 -2.000000e+00 -2.500000e+00
     vertex -1.377500e+02 -7.000000e+00 -2.500000e+00
     vertex -1.377500e+02 -7.000000e+00  2.500000e+00
   endloop
 endfacet
 facet normal -1.000000e+00  0.000000e+00  0.000000e+00
   outer loop
     vertex -1.377500e+02 -2.000000e+00 -2.500000e+00
     vertex -1.377500e+02 -7.000000e+00  2.500000e+00
     vertex -1.377500e+02 -2.000000e+00  2.500000e+00
   endloop
 endfacet
 facet normal  7.071068e-01  7.071068e-01  0.000000e+00
   outer loop
     vertex  1.377500e+02 -7.000000e+00 -2.500000e+00
     vertex  1.407500e+02 -1.000000e+01  2.500000e+00
     vertex  1.407500e+02 -1.000000e+01 -2.500000e+00
   endloop
 endfacet
 facet normal  7.071068e-01  7.071068e-01 -0.000000e+00
   outer loop
     vertex  1.377500e+02 -7.000000e+00 -2.500000e+00
     vertex  1.377500e+02 -7.000000e+00  2.500000e+00
     vertex  1.407500e+02 -1.000000e+01  2.500000e+00
   endloop
 endfacet
 facet normal  0.000000e+00 -1.000000e+00  0.000000e+00
   outer loop
     vertex  1.407500e+02 -1.000000e+01 -2.500000e+00
     vertex  1.327500e+02 -1.000000e+01  2.500000e+00
     vertex  1.327500e+02 -1.000000e+01 -2.500000e+00
   endloop
 endfacet
 facet normal  0.000000e+00 -1.000000e+00  0.000000e+00
   outer loop
     vertex  1.407500e+02 -1.000000e+01 -2.500000e+00
     vertex  1.407500e+02 -1.000000e+01  2.500000e+00
     vertex  1.327500e+02 -1.000000e+01  2.500000e+00
   endloop
 endfacet
 facet normal  0.000000e+00 -1.000000e+00  0.000000e+00
   outer loop
     vertex -1.407500e+02 -1.000000e+01 -2.500000e+00
     vertex -1.327500e+02 -1.000000e+01 -2.500000e+00
     vertex -1.327500e+02 -1.000000e+01  2.500000e+00
   endloop
 endfacet
 facet normal  0.000000e+00 -1.000000e+00  0.000000e+00
   outer loop
     vertex -1.407500e+02 -1.000000e+01 -2.500000e+00
     vertex -1.327500e+02 -1.000000e+01  2.500000e+00
     vertex -1.407500e+02 -1.000000e+01  2.500000e+00
   endloop
 endfacet
 facet normal -7.071068e-01  7.071068e-01  0.000000e+00
   outer loop
     vertex -1.377500e+02 -7.000000e+00 -2.500000e+00
     vertex -1.407500e+02 -1.000000e+01 -2.500000e+00
     vertex -1.407500e+02 -1.000000e+01  2.500000e+00
   endloop
 endfacet
 facet normal -7.071068e-01  7.071068e-01  0.000000e+00
   outer loop
     vertex -1.377500e+02 -7.000000e+00 -2.500000e+00
     vertex -1.407500e+02 -1.000000e+01  2.500000e+00
     vertex -1.377500e+02 -7.000000e+00  2.500000e+00
   endloop
 endfacet
endsolid
