solid 
 facet normal -6.673425e-02  9.977708e-01  2.010268e-04
   outer loop
     vertex -1.359505e+02  6.052580e-01  1.250000e+01
     vertex -1.443750e+02  4.306000e-02  6.250191e+00
     vertex -1.450000e+02  0.000000e+00  1.250000e+01
   endloop
 endfacet
 facet normal -6.671374e-02  9.977721e-01  1.732529e-04
   outer loop
     vertex -1.359505e+02  6.052580e-01  1.250000e+01
     vertex -1.437500e+02  8.593400e-02  2.546384e-04
     vertex -1.443750e+02  4.306000e-02  6.250191e+00
   endloop
 endfacet
 facet normal -6.558355e-02  9.978471e-01  2.420324e-04
   outer loop
     vertex -1.336061e+02  7.556741e-01 -1.250000e+01
     vertex -1.425000e+02  1.711240e-01 -1.250000e+01
     vertex -1.437500e+02  8.593400e-02  2.546384e-04
   endloop
 endfacet
 facet normal -6.243461e-02  9.980490e-01  1.500038e-04
   outer loop
     vertex -1.336061e+02  7.556741e-01 -1.250000e+01
     vertex -1.359505e+02  6.052580e-01  1.250000e+01
     vertex -1.268986e+02  1.171520e+00  1.250000e+01
   endloop
 endfacet
 facet normal -6.612255e-02  9.978115e-01 -1.972674e-04
   outer loop
     vertex -1.336061e+02  7.556741e-01 -1.250000e+01
     vertex -1.437500e+02  8.593400e-02  2.546384e-04
     vertex -1.359505e+02  6.052580e-01  1.250000e+01
   endloop
 endfacet
 facet normal -5.813381e-02  9.983088e-01  1.432662e-04
   outer loop
     vertex -1.247099e+02  1.302560e+00 -1.250000e+01
     vertex -1.268986e+02  1.171520e+00  1.250000e+01
     vertex -1.178442e+02  1.698774e+00  1.250000e+01
   endloop
 endfacet
 facet normal -6.135785e-02  9.981158e-01 -1.400035e-04
   outer loop
     vertex -1.247099e+02  1.302560e+00 -1.250000e+01
     vertex -1.336061e+02  7.556741e-01 -1.250000e+01
     vertex -1.268986e+02  1.171520e+00  1.250000e+01
   endloop
 endfacet
 facet normal -5.383194e-02  9.985500e-01  1.360626e-04
   outer loop
     vertex -1.158114e+02  1.811773e+00 -1.250000e+01
     vertex -1.178442e+02  1.698774e+00  1.250000e+01
     vertex -1.087877e+02  2.187013e+00  1.250000e+01
   endloop
 endfacet
 facet normal -5.713106e-02  9.983667e-01 -1.330329e-04
   outer loop
     vertex -1.158114e+02  1.811773e+00 -1.250000e+01
     vertex -1.247099e+02  1.302560e+00 -1.250000e+01
     vertex -1.178442e+02  1.698774e+00  1.250000e+01
   endloop
 endfacet
 facet normal -4.952906e-02  9.987727e-01  1.283928e-04
   outer loop
     vertex -1.069108e+02  2.283303e+00 -1.250000e+01
     vertex -1.087877e+02  2.187013e+00  1.250000e+01
     vertex -9.972916e+01  2.636225e+00  1.250000e+01
   endloop
 endfacet
 facet normal -5.290324e-02  9.985996e-01 -1.255962e-04
   outer loop
     vertex -1.069108e+02  2.283303e+00 -1.250000e+01
     vertex -1.158114e+02  1.811773e+00 -1.250000e+01
     vertex -1.087877e+02  2.187013e+00  1.250000e+01
   endloop
 endfacet
 facet normal -4.522526e-02  9.989768e-01  1.202569e-04
   outer loop
     vertex -9.800829e+01  2.717141e+00 -1.250000e+01
     vertex -9.972916e+01  2.636225e+00  1.250000e+01
     vertex -9.066876e+01  3.046404e+00  1.250000e+01
   endloop
 endfacet
 facet normal -4.867447e-02  9.988147e-01 -1.176934e-04
   outer loop
     vertex -9.800829e+01  2.717141e+00 -1.250000e+01
     vertex -1.069108e+02  2.283303e+00 -1.250000e+01
     vertex -9.972916e+01  2.636225e+00  1.250000e+01
   endloop
 endfacet
 facet normal -4.444483e-02  9.990118e-01 -1.093245e-04
   outer loop
     vertex -8.910403e+01  3.113281e+00 -1.250000e+01
     vertex -9.800829e+01  2.717141e+00 -1.250000e+01
     vertex -9.066876e+01  3.046404e+00  1.250000e+01
   endloop
 endfacet
 facet normal -4.092063e-02  9.991624e-01  1.116550e-04
   outer loop
     vertex -8.910403e+01  3.113281e+00 -1.250000e+01
     vertex -9.066876e+01  3.046404e+00  1.250000e+01
     vertex -8.160668e+01  3.417540e+00  1.250000e+01
   endloop
 endfacet
 facet normal -4.021439e-02  9.991911e-01 -1.004895e-04
   outer loop
     vertex -8.019818e+01  3.471714e+00 -1.250000e+01
     vertex -8.910403e+01  3.113281e+00 -1.250000e+01
     vertex -8.160668e+01  3.417540e+00  1.250000e+01
   endloop
 endfacet
 facet normal -3.661523e-02  9.993294e-01  1.025869e-04
   outer loop
     vertex -8.019818e+01  3.471714e+00 -1.250000e+01
     vertex -8.160668e+01  3.417540e+00  1.250000e+01
     vertex -7.254309e+01  3.749629e+00  1.250000e+01
   endloop
 endfacet
 facet normal -3.598324e-02  9.993524e-01 -9.118838e-05
   outer loop
     vertex -7.129090e+01  3.792435e+00 -1.250000e+01
     vertex -8.019818e+01  3.471714e+00 -1.250000e+01
     vertex -7.254309e+01  3.749629e+00  1.250000e+01
   endloop
 endfacet
 facet normal -3.230916e-02  9.994779e-01  9.305278e-05
   outer loop
     vertex -7.129090e+01  3.792435e+00 -1.250000e+01
     vertex -7.254309e+01  3.749629e+00  1.250000e+01
     vertex -6.347815e+01  4.042662e+00  1.250000e+01
   endloop
 endfacet
 facet normal -2.800248e-02  9.996079e-01  8.305252e-05
   outer loop
     vertex -6.238233e+01  4.075437e+00 -1.250000e+01
     vertex -6.347815e+01  4.042662e+00  1.250000e+01
     vertex -5.441203e+01  4.296636e+00  1.250000e+01
   endloop
 endfacet
 facet normal -3.175143e-02  9.994958e-01 -8.142118e-05
   outer loop
     vertex -6.238233e+01  4.075437e+00 -1.250000e+01
     vertex -7.129090e+01  3.792435e+00 -1.250000e+01
     vertex -6.347815e+01  4.042662e+00  1.250000e+01
   endloop
 endfacet
 facet normal -2.369529e-02  9.997192e-01  7.258617e-05
   outer loop
     vertex -5.347265e+01  4.320716e+00 -1.250000e+01
     vertex -5.441203e+01  4.296636e+00  1.250000e+01
     vertex -4.534490e+01  4.511544e+00  1.250000e+01
   endloop
 endfacet
 facet normal -2.751906e-02  9.996213e-01 -7.118788e-05
   outer loop
     vertex -5.347265e+01  4.320716e+00 -1.250000e+01
     vertex -6.238233e+01  4.075437e+00 -1.250000e+01
     vertex -5.441203e+01  4.296636e+00  1.250000e+01
   endloop
 endfacet
 facet normal -1.938765e-02  9.998120e-01  6.165372e-05
   outer loop
     vertex -4.456200e+01  4.528267e+00 -1.250000e+01
     vertex -4.534490e+01  4.511544e+00  1.250000e+01
     vertex -3.627693e+01  4.687384e+00  1.250000e+01
   endloop
 endfacet
 facet normal -2.328619e-02  9.997288e-01 -6.048848e-05
   outer loop
     vertex -4.456200e+01  4.528267e+00 -1.250000e+01
     vertex -5.347265e+01  4.320716e+00 -1.250000e+01
     vertex -4.534490e+01  4.511544e+00  1.250000e+01
   endloop
 endfacet
 facet normal -1.507966e-02  9.998863e-01  5.025517e-05
   outer loop
     vertex -3.565056e+01  4.698087e+00 -1.250000e+01
     vertex -3.627693e+01  4.687384e+00  1.250000e+01
     vertex -2.720829e+01  4.824152e+00  1.250000e+01
   endloop
 endfacet
 facet normal -1.905291e-02  9.998185e-01 -4.932298e-05
   outer loop
     vertex -3.565056e+01  4.698087e+00 -1.250000e+01
     vertex -4.456200e+01  4.528267e+00 -1.250000e+01
     vertex -3.627693e+01  4.687384e+00  1.250000e+01
   endloop
 endfacet
 facet normal -1.077139e-02  9.999420e-01  3.839053e-05
   outer loop
     vertex -2.673848e+01  4.830172e+00 -1.250000e+01
     vertex -2.720829e+01  4.824152e+00  1.250000e+01
     vertex -1.813914e+01  4.921845e+00  1.250000e+01
   endloop
 endfacet
 facet normal -1.481928e-02  9.998902e-01 -3.769138e-05
   outer loop
     vertex -2.673848e+01  4.830172e+00 -1.250000e+01
     vertex -3.565056e+01  4.698087e+00 -1.250000e+01
     vertex -2.720829e+01  4.824152e+00  1.250000e+01
   endloop
 endfacet
 facet normal -6.462911e-03  9.999791e-01  2.605978e-05
   outer loop
     vertex -1.782592e+01  4.924520e+00 -1.250000e+01
     vertex -1.813914e+01  4.921845e+00  1.250000e+01
     vertex -9.069654e+00  4.980461e+00  1.250000e+01
   endloop
 endfacet
 facet normal -1.058539e-02  9.999440e-01 -2.559368e-05
   outer loop
     vertex -1.782592e+01  4.924520e+00 -1.250000e+01
     vertex -2.673848e+01  4.830172e+00 -1.250000e+01
     vertex -1.813914e+01  4.921845e+00  1.250000e+01
   endloop
 endfacet
 facet normal -2.154317e-03  9.999977e-01  1.326294e-05
   outer loop
     vertex -8.913040e+00  4.981130e+00 -1.250000e+01
     vertex -9.069654e+00  4.980461e+00  1.250000e+01
     vertex -8.526513e-14  5.000000e+00  1.250000e+01
   endloop
 endfacet
 facet normal -6.351311e-03  9.999798e-01 -1.302989e-05
   outer loop
     vertex -8.913040e+00  4.981130e+00 -1.250000e+01
     vertex -1.782592e+01  4.924520e+00 -1.250000e+01
     vertex -9.069654e+00  4.980461e+00  1.250000e+01
   endloop
 endfacet
 facet normal -2.117116e-03  9.999978e-01 -1.701666e-15
   outer loop
     vertex  2.000888e-11  5.000000e+00 -1.250000e+01
     vertex -8.913040e+00  4.981130e+00 -1.250000e+01
     vertex -8.526513e-14  5.000000e+00  1.250000e+01
   endloop
 endfacet
 facet normal  2.154317e-03  9.999977e-01  1.326294e-05
   outer loop
     vertex  8.913040e+00  4.981130e+00 -1.250000e+01
     vertex -8.526513e-14  5.000000e+00  1.250000e+01
     vertex  9.069654e+00  4.980461e+00  1.250000e+01
   endloop
 endfacet
 facet normal  2.117116e-03  9.999978e-01  1.701633e-15
   outer loop
     vertex  8.913040e+00  4.981130e+00 -1.250000e+01
     vertex  2.000888e-11  5.000000e+00 -1.250000e+01
     vertex -8.526513e-14  5.000000e+00  1.250000e+01
   endloop
 endfacet
 facet normal  6.462911e-03  9.999791e-01  2.605978e-05
   outer loop
     vertex  1.782592e+01  4.924520e+00 -1.250000e+01
     vertex  9.069654e+00  4.980461e+00  1.250000e+01
     vertex  1.813914e+01  4.921845e+00  1.250000e+01
   endloop
 endfacet
 facet normal  6.351311e-03  9.999798e-01 -1.302989e-05
   outer loop
     vertex  1.782592e+01  4.924520e+00 -1.250000e+01
     vertex  8.913040e+00  4.981130e+00 -1.250000e+01
     vertex  9.069654e+00  4.980461e+00  1.250000e+01
   endloop
 endfacet
 facet normal  1.077139e-02  9.999420e-01  3.839053e-05
   outer loop
     vertex  2.673848e+01  4.830172e+00 -1.250000e+01
     vertex  1.813914e+01  4.921845e+00  1.250000e+01
     vertex  2.720829e+01  4.824152e+00  1.250000e+01
   endloop
 endfacet
 facet normal  1.058539e-02  9.999440e-01 -2.559368e-05
   outer loop
     vertex  2.673848e+01  4.830172e+00 -1.250000e+01
     vertex  1.782592e+01  4.924520e+00 -1.250000e+01
     vertex  1.813914e+01  4.921845e+00  1.250000e+01
   endloop
 endfacet
 facet normal  1.507966e-02  9.998863e-01  5.025517e-05
   outer loop
     vertex  3.565056e+01  4.698087e+00 -1.250000e+01
     vertex  2.720829e+01  4.824152e+00  1.250000e+01
     vertex  3.627693e+01  4.687384e+00  1.250000e+01
   endloop
 endfacet
 facet normal  1.481928e-02  9.998902e-01 -3.769138e-05
   outer loop
     vertex  3.565056e+01  4.698087e+00 -1.250000e+01
     vertex  2.673848e+01  4.830172e+00 -1.250000e+01
     vertex  2.720829e+01  4.824152e+00  1.250000e+01
   endloop
 endfacet
 facet normal  1.938765e-02  9.998120e-01  6.165372e-05
   outer loop
     vertex  4.456200e+01  4.528267e+00 -1.250000e+01
     vertex  3.627693e+01  4.687384e+00  1.250000e+01
     vertex  4.534490e+01  4.511544e+00  1.250000e+01
   endloop
 endfacet
 facet normal  1.905291e-02  9.998185e-01 -4.932298e-05
   outer loop
     vertex  4.456200e+01  4.528267e+00 -1.250000e+01
     vertex  3.565056e+01  4.698087e+00 -1.250000e+01
     vertex  3.627693e+01  4.687384e+00  1.250000e+01
   endloop
 endfacet
 facet normal  2.369529e-02  9.997192e-01  7.258617e-05
   outer loop
     vertex  5.347265e+01  4.320716e+00 -1.250000e+01
     vertex  4.534490e+01  4.511544e+00  1.250000e+01
     vertex  5.441203e+01  4.296636e+00  1.250000e+01
   endloop
 endfacet
 facet normal  2.328619e-02  9.997288e-01 -6.048848e-05
   outer loop
     vertex  5.347265e+01  4.320716e+00 -1.250000e+01
     vertex  4.456200e+01  4.528267e+00 -1.250000e+01
     vertex  4.534490e+01  4.511544e+00  1.250000e+01
   endloop
 endfacet
 facet normal  2.800248e-02  9.996079e-01  8.305252e-05
   outer loop
     vertex  6.238233e+01  4.075437e+00 -1.250000e+01
     vertex  5.441203e+01  4.296636e+00  1.250000e+01
     vertex  6.347815e+01  4.042662e+00  1.250000e+01
   endloop
 endfacet
 facet normal  2.751906e-02  9.996213e-01 -7.118788e-05
   outer loop
     vertex  6.238233e+01  4.075437e+00 -1.250000e+01
     vertex  5.347265e+01  4.320716e+00 -1.250000e+01
     vertex  5.441203e+01  4.296636e+00  1.250000e+01
   endloop
 endfacet
 facet normal  3.230916e-02  9.994779e-01  9.305278e-05
   outer loop
     vertex  7.129090e+01  3.792435e+00 -1.250000e+01
     vertex  6.347815e+01  4.042662e+00  1.250000e+01
     vertex  7.254309e+01  3.749629e+00  1.250000e+01
   endloop
 endfacet
 facet normal  3.175143e-02  9.994958e-01 -8.142118e-05
   outer loop
     vertex  7.129090e+01  3.792435e+00 -1.250000e+01
     vertex  6.238233e+01  4.075437e+00 -1.250000e+01
     vertex  6.347815e+01  4.042662e+00  1.250000e+01
   endloop
 endfacet
 facet normal  3.661523e-02  9.993294e-01  1.025869e-04
   outer loop
     vertex  8.019818e+01  3.471714e+00 -1.250000e+01
     vertex  7.254309e+01  3.749629e+00  1.250000e+01
     vertex  8.160668e+01  3.417540e+00  1.250000e+01
   endloop
 endfacet
 facet normal  3.598324e-02  9.993524e-01 -9.118838e-05
   outer loop
     vertex  8.019818e+01  3.471714e+00 -1.250000e+01
     vertex  7.129090e+01  3.792435e+00 -1.250000e+01
     vertex  7.254309e+01  3.749629e+00  1.250000e+01
   endloop
 endfacet
 facet normal  4.092063e-02  9.991624e-01  1.116550e-04
   outer loop
     vertex  8.910403e+01  3.113281e+00 -1.250000e+01
     vertex  8.160668e+01  3.417540e+00  1.250000e+01
     vertex  9.066876e+01  3.046404e+00  1.250000e+01
   endloop
 endfacet
 facet normal  4.021439e-02  9.991911e-01 -1.004895e-04
   outer loop
     vertex  8.910403e+01  3.113281e+00 -1.250000e+01
     vertex  8.019818e+01  3.471714e+00 -1.250000e+01
     vertex  8.160668e+01  3.417540e+00  1.250000e+01
   endloop
 endfacet
 facet normal  4.522526e-02  9.989768e-01  1.202569e-04
   outer loop
     vertex  9.800829e+01  2.717141e+00 -1.250000e+01
     vertex  9.066876e+01  3.046404e+00  1.250000e+01
     vertex  9.972916e+01  2.636225e+00  1.250000e+01
   endloop
 endfacet
 facet normal  4.444483e-02  9.990118e-01 -1.093245e-04
   outer loop
     vertex  9.800829e+01  2.717141e+00 -1.250000e+01
     vertex  8.910403e+01  3.113281e+00 -1.250000e+01
     vertex  9.066876e+01  3.046404e+00  1.250000e+01
   endloop
 endfacet
 facet normal  4.952906e-02  9.987727e-01  1.283928e-04
   outer loop
     vertex  1.069108e+02  2.283303e+00 -1.250000e+01
     vertex  9.972916e+01  2.636225e+00  1.250000e+01
     vertex  1.087877e+02  2.187013e+00  1.250000e+01
   endloop
 endfacet
 facet normal  4.867447e-02  9.988147e-01 -1.176934e-04
   outer loop
     vertex  1.069108e+02  2.283303e+00 -1.250000e+01
     vertex  9.800829e+01  2.717141e+00 -1.250000e+01
     vertex  9.972916e+01  2.636225e+00  1.250000e+01
   endloop
 endfacet
 facet normal  5.383194e-02  9.985500e-01  1.360626e-04
   outer loop
     vertex  1.158114e+02  1.811773e+00 -1.250000e+01
     vertex  1.087877e+02  2.187013e+00  1.250000e+01
     vertex  1.178442e+02  1.698774e+00  1.250000e+01
   endloop
 endfacet
 facet normal  5.290324e-02  9.985996e-01 -1.255962e-04
   outer loop
     vertex  1.158114e+02  1.811773e+00 -1.250000e+01
     vertex  1.069108e+02  2.283303e+00 -1.250000e+01
     vertex  1.087877e+02  2.187013e+00  1.250000e+01
   endloop
 endfacet
 facet normal  5.813381e-02  9.983088e-01  1.432662e-04
   outer loop
     vertex  1.247099e+02  1.302560e+00 -1.250000e+01
     vertex  1.178442e+02  1.698774e+00  1.250000e+01
     vertex  1.268986e+02  1.171520e+00  1.250000e+01
   endloop
 endfacet
 facet normal  5.713106e-02  9.983667e-01 -1.330329e-04
   outer loop
     vertex  1.247099e+02  1.302560e+00 -1.250000e+01
     vertex  1.158114e+02  1.811773e+00 -1.250000e+01
     vertex  1.178442e+02  1.698774e+00  1.250000e+01
   endloop
 endfacet
 facet normal  6.243461e-02  9.980490e-01  1.500038e-04
   outer loop
     vertex  1.336061e+02  7.556741e-01 -1.250000e+01
     vertex  1.268986e+02  1.171520e+00  1.250000e+01
     vertex  1.359505e+02  6.052580e-01  1.250000e+01
   endloop
 endfacet
 facet normal  6.135785e-02  9.981158e-01 -1.400035e-04
   outer loop
     vertex  1.336061e+02  7.556741e-01 -1.250000e+01
     vertex  1.247099e+02  1.302560e+00 -1.250000e+01
     vertex  1.268986e+02  1.171520e+00  1.250000e+01
   endloop
 endfacet
 facet normal  6.673425e-02  9.977708e-01  2.010268e-04
   outer loop
     vertex  1.443750e+02  4.306000e-02  6.250191e+00
     vertex  1.359505e+02  6.052580e-01  1.250000e+01
     vertex  1.450000e+02 -2.273737e-13  1.250000e+01
   endloop
 endfacet
 facet normal  6.612255e-02  9.978115e-01 -1.972674e-04
   outer loop
     vertex  1.437500e+02  8.593400e-02  2.546384e-04
     vertex  1.336061e+02  7.556741e-01 -1.250000e+01
     vertex  1.359505e+02  6.052580e-01  1.250000e+01
   endloop
 endfacet
 facet normal  6.671374e-02  9.977721e-01  1.732529e-04
   outer loop
     vertex  1.437500e+02  8.593400e-02  2.546384e-04
     vertex  1.359505e+02  6.052580e-01  1.250000e+01
     vertex  1.443750e+02  4.306000e-02  6.250191e+00
   endloop
 endfacet
 facet normal  6.558355e-02  9.978471e-01  2.420324e-04
   outer loop
     vertex  1.425000e+02  1.711240e-01 -1.250000e+01
     vertex  1.336061e+02  7.556741e-01 -1.250000e+01
     vertex  1.437500e+02  8.593400e-02  2.546384e-04
   endloop
 endfacet
 facet normal -9.950372e-01  2.257141e-14 -9.950372e-02
   outer loop
     vertex -1.443750e+02 -2.462848e+00  6.250192e+00
     vertex -1.450000e+02 -2.505959e+00  1.250000e+01
     vertex -1.450000e+02  0.000000e+00  1.250000e+01
   endloop
 endfacet
 facet normal -9.950372e-01  9.028473e-15 -9.950372e-02
   outer loop
     vertex -1.443750e+02 -2.462848e+00  6.250192e+00
     vertex -1.450000e+02  0.000000e+00  1.250000e+01
     vertex -1.443750e+02  4.306000e-02  6.250191e+00
   endloop
 endfacet
 facet normal -9.950372e-01  2.186257e-22 -9.950372e-02
   outer loop
     vertex -1.437500e+02 -2.419923e+00  2.552472e-04
     vertex -1.443750e+02  4.306000e-02  6.250191e+00
     vertex -1.437500e+02  8.593400e-02  2.546384e-04
   endloop
 endfacet
 facet normal -9.950372e-01  9.028566e-15 -9.950372e-02
   outer loop
     vertex -1.437500e+02 -2.419923e+00  2.552472e-04
     vertex -1.443750e+02 -2.462848e+00  6.250192e+00
     vertex -1.443750e+02  4.306000e-02  6.250191e+00
   endloop
 endfacet
 facet normal -9.950372e-01  3.043910e-11 -9.950372e-02
   outer loop
     vertex -1.425000e+02 -2.334631e+00 -1.250000e+01
     vertex -1.437500e+02  8.593400e-02  2.546384e-04
     vertex -1.425000e+02  1.711240e-01 -1.250000e+01
   endloop
 endfacet
 facet normal -9.950372e-01  0.000000e+00 -9.950372e-02
   outer loop
     vertex -1.425000e+02 -2.334631e+00 -1.250000e+01
     vertex -1.437500e+02 -2.419923e+00  2.552472e-04
     vertex -1.437500e+02  8.593400e-02  2.546384e-04
   endloop
 endfacet
 facet normal  0.000000e+00  0.000000e+00 -1.000000e+00
   outer loop
     vertex  1.336062e+02 -1.749385e+00 -1.250000e+01
     vertex  1.425000e+02  1.711240e-01 -1.250000e+01
     vertex  1.425000e+02 -2.334631e+00 -1.250000e+01
   endloop
 endfacet
 facet normal  0.000000e+00  0.000000e+00 -1.000000e+00
   outer loop
     vertex  1.336061e+02  7.556741e-01 -1.250000e+01
     vertex  1.425000e+02  1.711240e-01 -1.250000e+01
     vertex  1.336062e+02 -1.749385e+00 -1.250000e+01
   endloop
 endfacet
 facet normal  0.000000e+00  0.000000e+00 -1.000000e+00
   outer loop
     vertex  1.247099e+02 -1.201847e+00 -1.250000e+01
     vertex  1.336061e+02  7.556741e-01 -1.250000e+01
     vertex  1.336062e+02 -1.749385e+00 -1.250000e+01
   endloop
 endfacet
 facet normal  0.000000e+00  0.000000e+00 -1.000000e+00
   outer loop
     vertex  1.247099e+02  1.302560e+00 -1.250000e+01
     vertex  1.336061e+02  7.556741e-01 -1.250000e+01
     vertex  1.247099e+02 -1.201847e+00 -1.250000e+01
   endloop
 endfacet
 facet normal  0.000000e+00  0.000000e+00 -1.000000e+00
   outer loop
     vertex  1.158114e+02 -6.920278e-01 -1.250000e+01
     vertex  1.247099e+02  1.302560e+00 -1.250000e+01
     vertex  1.247099e+02 -1.201847e+00 -1.250000e+01
   endloop
 endfacet
 facet normal  0.000000e+00  0.000000e+00 -1.000000e+00
   outer loop
     vertex  1.158114e+02  1.811773e+00 -1.250000e+01
     vertex  1.247099e+02  1.302560e+00 -1.250000e+01
     vertex  1.158114e+02 -6.920278e-01 -1.250000e+01
   endloop
 endfacet
 facet normal  0.000000e+00  0.000000e+00 -1.000000e+00
   outer loop
     vertex  1.069109e+02 -2.199362e-01 -1.250000e+01
     vertex  1.158114e+02  1.811773e+00 -1.250000e+01
     vertex  1.158114e+02 -6.920278e-01 -1.250000e+01
   endloop
 endfacet
 facet normal  0.000000e+00  0.000000e+00 -1.000000e+00
   outer loop
     vertex  1.069108e+02  2.283303e+00 -1.250000e+01
     vertex  1.158114e+02  1.811773e+00 -1.250000e+01
     vertex  1.069109e+02 -2.199362e-01 -1.250000e+01
   endloop
 endfacet
 facet normal  0.000000e+00  0.000000e+00 -1.000000e+00
   outer loop
     vertex  9.800838e+01  2.144193e-01 -1.250000e+01
     vertex  1.069108e+02  2.283303e+00 -1.250000e+01
     vertex  1.069109e+02 -2.199362e-01 -1.250000e+01
   endloop
 endfacet
 facet normal  0.000000e+00  0.000000e+00 -1.000000e+00
   outer loop
     vertex  9.800829e+01  2.717141e+00 -1.250000e+01
     vertex  1.069108e+02  2.283303e+00 -1.250000e+01
     vertex  9.800838e+01  2.144193e-01 -1.250000e+01
   endloop
 endfacet
 facet normal  0.000000e+00  0.000000e+00 -1.000000e+00
   outer loop
     vertex  8.910413e+01  6.110309e-01 -1.250000e+01
     vertex  9.800829e+01  2.717141e+00 -1.250000e+01
     vertex  9.800838e+01  2.144193e-01 -1.250000e+01
   endloop
 endfacet
 facet normal  0.000000e+00  0.000000e+00 -1.000000e+00
   outer loop
     vertex  8.910403e+01  3.113281e+00 -1.250000e+01
     vertex  9.800829e+01  2.717141e+00 -1.250000e+01
     vertex  8.910413e+01  6.110309e-01 -1.250000e+01
   endloop
 endfacet
 facet normal  0.000000e+00  0.000000e+00 -1.000000e+00
   outer loop
     vertex  8.019828e+01  9.698915e-01 -1.250000e+01
     vertex  8.910403e+01  3.113281e+00 -1.250000e+01
     vertex  8.910413e+01  6.110309e-01 -1.250000e+01
   endloop
 endfacet
 facet normal  0.000000e+00  0.000000e+00 -1.000000e+00
   outer loop
     vertex  8.019818e+01  3.471714e+00 -1.250000e+01
     vertex  8.910403e+01  3.113281e+00 -1.250000e+01
     vertex  8.019828e+01  9.698915e-01 -1.250000e+01
   endloop
 endfacet
 facet normal  0.000000e+00  0.000000e+00 -1.000000e+00
   outer loop
     vertex  7.129099e+01  1.290995e+00 -1.250000e+01
     vertex  8.019818e+01  3.471714e+00 -1.250000e+01
     vertex  8.019828e+01  9.698915e-01 -1.250000e+01
   endloop
 endfacet
 facet normal  0.000000e+00  0.000000e+00 -1.000000e+00
   outer loop
     vertex  7.129090e+01  3.792435e+00 -1.250000e+01
     vertex  8.019818e+01  3.471714e+00 -1.250000e+01
     vertex  7.129099e+01  1.290995e+00 -1.250000e+01
   endloop
 endfacet
 facet normal  0.000000e+00  0.000000e+00 -1.000000e+00
   outer loop
     vertex  6.238242e+01  1.574334e+00 -1.250000e+01
     vertex  7.129090e+01  3.792435e+00 -1.250000e+01
     vertex  7.129099e+01  1.290995e+00 -1.250000e+01
   endloop
 endfacet
 facet normal  0.000000e+00  0.000000e+00 -1.000000e+00
   outer loop
     vertex  6.238233e+01  4.075437e+00 -1.250000e+01
     vertex  7.129090e+01  3.792435e+00 -1.250000e+01
     vertex  6.238242e+01  1.574334e+00 -1.250000e+01
   endloop
 endfacet
 facet normal  0.000000e+00  0.000000e+00 -1.000000e+00
   outer loop
     vertex  5.347273e+01  1.819906e+00 -1.250000e+01
     vertex  6.238233e+01  4.075437e+00 -1.250000e+01
     vertex  6.238242e+01  1.574334e+00 -1.250000e+01
   endloop
 endfacet
 facet normal  0.000000e+00  0.000000e+00 -1.000000e+00
   outer loop
     vertex  5.347265e+01  4.320716e+00 -1.250000e+01
     vertex  6.238233e+01  4.075437e+00 -1.250000e+01
     vertex  5.347273e+01  1.819906e+00 -1.250000e+01
   endloop
 endfacet
 facet normal  0.000000e+00  0.000000e+00 -1.000000e+00
   outer loop
     vertex  4.456208e+01  2.027705e+00 -1.250000e+01
     vertex  5.347265e+01  4.320716e+00 -1.250000e+01
     vertex  5.347273e+01  1.819906e+00 -1.250000e+01
   endloop
 endfacet
 facet normal  0.000000e+00  0.000000e+00 -1.000000e+00
   outer loop
     vertex  4.456200e+01  4.528267e+00 -1.250000e+01
     vertex  5.347265e+01  4.320716e+00 -1.250000e+01
     vertex  4.456208e+01  2.027705e+00 -1.250000e+01
   endloop
 endfacet
 facet normal  0.000000e+00  0.000000e+00 -1.000000e+00
   outer loop
     vertex  3.565062e+01  2.197727e+00 -1.250000e+01
     vertex  4.456200e+01  4.528267e+00 -1.250000e+01
     vertex  4.456208e+01  2.027705e+00 -1.250000e+01
   endloop
 endfacet
 facet normal  0.000000e+00  0.000000e+00 -1.000000e+00
   outer loop
     vertex  3.565056e+01  4.698087e+00 -1.250000e+01
     vertex  4.456200e+01  4.528267e+00 -1.250000e+01
     vertex  3.565062e+01  2.197727e+00 -1.250000e+01
   endloop
 endfacet
 facet normal  0.000000e+00  0.000000e+00 -1.000000e+00
   outer loop
     vertex  2.673853e+01  2.329970e+00 -1.250000e+01
     vertex  3.565056e+01  4.698087e+00 -1.250000e+01
     vertex  3.565062e+01  2.197727e+00 -1.250000e+01
   endloop
 endfacet
 facet normal  0.000000e+00  0.000000e+00 -1.000000e+00
   outer loop
     vertex  2.673848e+01  4.830172e+00 -1.250000e+01
     vertex  3.565056e+01  4.698087e+00 -1.250000e+01
     vertex  2.673853e+01  2.329970e+00 -1.250000e+01
   endloop
 endfacet
 facet normal  0.000000e+00  0.000000e+00 -1.000000e+00
   outer loop
     vertex  1.782595e+01  2.424430e+00 -1.250000e+01
     vertex  2.673848e+01  4.830172e+00 -1.250000e+01
     vertex  2.673853e+01  2.329970e+00 -1.250000e+01
   endloop
 endfacet
 facet normal  0.000000e+00  0.000000e+00 -1.000000e+00
   outer loop
     vertex  1.782592e+01  4.924520e+00 -1.250000e+01
     vertex  2.673848e+01  4.830172e+00 -1.250000e+01
     vertex  1.782595e+01  2.424430e+00 -1.250000e+01
   endloop
 endfacet
 facet normal  0.000000e+00  0.000000e+00 -1.000000e+00
   outer loop
     vertex  8.913056e+00  2.481108e+00 -1.250000e+01
     vertex  1.782592e+01  4.924520e+00 -1.250000e+01
     vertex  1.782595e+01  2.424430e+00 -1.250000e+01
   endloop
 endfacet
 facet normal  0.000000e+00  0.000000e+00 -1.000000e+00
   outer loop
     vertex  8.913040e+00  4.981130e+00 -1.250000e+01
     vertex  1.782592e+01  4.924520e+00 -1.250000e+01
     vertex  8.913056e+00  2.481108e+00 -1.250000e+01
   endloop
 endfacet
 facet normal  0.000000e+00  0.000000e+00 -1.000000e+00
   outer loop
     vertex -1.389822e-11  2.500000e+00 -1.250000e+01
     vertex  8.913040e+00  4.981130e+00 -1.250000e+01
     vertex  8.913056e+00  2.481108e+00 -1.250000e+01
   endloop
 endfacet
 facet normal  0.000000e+00 -0.000000e+00 -1.000000e+00
   outer loop
     vertex  2.000888e-11  5.000000e+00 -1.250000e+01
     vertex  8.913040e+00  4.981130e+00 -1.250000e+01
     vertex -1.389822e-11  2.500000e+00 -1.250000e+01
   endloop
 endfacet
 facet normal  0.000000e+00 -0.000000e+00 -1.000000e+00
   outer loop
     vertex -8.913040e+00  4.981130e+00 -1.250000e+01
     vertex -1.389822e-11  2.500000e+00 -1.250000e+01
     vertex -8.913056e+00  2.481108e+00 -1.250000e+01
   endloop
 endfacet
 facet normal  0.000000e+00  0.000000e+00 -1.000000e+00
   outer loop
     vertex -8.913040e+00  4.981130e+00 -1.250000e+01
     vertex  2.000888e-11  5.000000e+00 -1.250000e+01
     vertex -1.389822e-11  2.500000e+00 -1.250000e+01
   endloop
 endfacet
 facet normal  0.000000e+00 -0.000000e+00 -1.000000e+00
   outer loop
     vertex -1.782592e+01  4.924520e+00 -1.250000e+01
     vertex -8.913056e+00  2.481108e+00 -1.250000e+01
     vertex -1.782595e+01  2.424430e+00 -1.250000e+01
   endloop
 endfacet
 facet normal  0.000000e+00  0.000000e+00 -1.000000e+00
   outer loop
     vertex -1.782592e+01  4.924520e+00 -1.250000e+01
     vertex -8.913040e+00  4.981130e+00 -1.250000e+01
     vertex -8.913056e+00  2.481108e+00 -1.250000e+01
   endloop
 endfacet
 facet normal  0.000000e+00 -0.000000e+00 -1.000000e+00
   outer loop
     vertex -2.673848e+01  4.830172e+00 -1.250000e+01
     vertex -1.782595e+01  2.424430e+00 -1.250000e+01
     vertex -2.673853e+01  2.329970e+00 -1.250000e+01
   endloop
 endfacet
 facet normal  0.000000e+00  0.000000e+00 -1.000000e+00
   outer loop
     vertex -2.673848e+01  4.830172e+00 -1.250000e+01
     vertex -1.782592e+01  4.924520e+00 -1.250000e+01
     vertex -1.782595e+01  2.424430e+00 -1.250000e+01
   endloop
 endfacet
 facet normal  0.000000e+00 -0.000000e+00 -1.000000e+00
   outer loop
     vertex -3.565056e+01  4.698087e+00 -1.250000e+01
     vertex -2.673853e+01  2.329970e+00 -1.250000e+01
     vertex -3.565062e+01  2.197727e+00 -1.250000e+01
   endloop
 endfacet
 facet normal  0.000000e+00  0.000000e+00 -1.000000e+00
   outer loop
     vertex -3.565056e+01  4.698087e+00 -1.250000e+01
     vertex -2.673848e+01  4.830172e+00 -1.250000e+01
     vertex -2.673853e+01  2.329970e+00 -1.250000e+01
   endloop
 endfacet
 facet normal  0.000000e+00 -0.000000e+00 -1.000000e+00
   outer loop
     vertex -4.456200e+01  4.528267e+00 -1.250000e+01
     vertex -3.565062e+01  2.197727e+00 -1.250000e+01
     vertex -4.456208e+01  2.027705e+00 -1.250000e+01
   endloop
 endfacet
 facet normal  0.000000e+00  0.000000e+00 -1.000000e+00
   outer loop
     vertex -4.456200e+01  4.528267e+00 -1.250000e+01
     vertex -3.565056e+01  4.698087e+00 -1.250000e+01
     vertex -3.565062e+01  2.197727e+00 -1.250000e+01
   endloop
 endfacet
 facet normal  0.000000e+00 -0.000000e+00 -1.000000e+00
   outer loop
     vertex -5.347265e+01  4.320716e+00 -1.250000e+01
     vertex -4.456208e+01  2.027705e+00 -1.250000e+01
     vertex -5.347273e+01  1.819906e+00 -1.250000e+01
   endloop
 endfacet
 facet normal  0.000000e+00  0.000000e+00 -1.000000e+00
   outer loop
     vertex -5.347265e+01  4.320716e+00 -1.250000e+01
     vertex -4.456200e+01  4.528267e+00 -1.250000e+01
     vertex -4.456208e+01  2.027705e+00 -1.250000e+01
   endloop
 endfacet
 facet normal  0.000000e+00 -0.000000e+00 -1.000000e+00
   outer loop
     vertex -6.238233e+01  4.075437e+00 -1.250000e+01
     vertex -5.347273e+01  1.819906e+00 -1.250000e+01
     vertex -6.238242e+01  1.574334e+00 -1.250000e+01
   endloop
 endfacet
 facet normal  0.000000e+00  0.000000e+00 -1.000000e+00
   outer loop
     vertex -6.238233e+01  4.075437e+00 -1.250000e+01
     vertex -5.347265e+01  4.320716e+00 -1.250000e+01
     vertex -5.347273e+01  1.819906e+00 -1.250000e+01
   endloop
 endfacet
 facet normal  0.000000e+00 -0.000000e+00 -1.000000e+00
   outer loop
     vertex -7.129090e+01  3.792435e+00 -1.250000e+01
     vertex -6.238242e+01  1.574334e+00 -1.250000e+01
     vertex -7.129099e+01  1.290995e+00 -1.250000e+01
   endloop
 endfacet
 facet normal  0.000000e+00  0.000000e+00 -1.000000e+00
   outer loop
     vertex -7.129090e+01  3.792435e+00 -1.250000e+01
     vertex -6.238233e+01  4.075437e+00 -1.250000e+01
     vertex -6.238242e+01  1.574334e+00 -1.250000e+01
   endloop
 endfacet
 facet normal  0.000000e+00 -0.000000e+00 -1.000000e+00
   outer loop
     vertex -8.019818e+01  3.471714e+00 -1.250000e+01
     vertex -7.129099e+01  1.290995e+00 -1.250000e+01
     vertex -8.019828e+01  9.698915e-01 -1.250000e+01
   endloop
 endfacet
 facet normal  0.000000e+00  0.000000e+00 -1.000000e+00
   outer loop
     vertex -8.019818e+01  3.471714e+00 -1.250000e+01
     vertex -7.129090e+01  3.792435e+00 -1.250000e+01
     vertex -7.129099e+01  1.290995e+00 -1.250000e+01
   endloop
 endfacet
 facet normal  0.000000e+00  0.000000e+00 -1.000000e+00
   outer loop
     vertex -8.910403e+01  3.113281e+00 -1.250000e+01
     vertex -8.019818e+01  3.471714e+00 -1.250000e+01
     vertex -8.019828e+01  9.698915e-01 -1.250000e+01
   endloop
 endfacet
 facet normal  0.000000e+00 -0.000000e+00 -1.000000e+00
   outer loop
     vertex -8.910403e+01  3.113281e+00 -1.250000e+01
     vertex -8.019828e+01  9.698915e-01 -1.250000e+01
     vertex -8.910413e+01  6.110309e-01 -1.250000e+01
   endloop
 endfacet
 facet normal  0.000000e+00 -0.000000e+00 -1.000000e+00
   outer loop
     vertex -9.800829e+01  2.717141e+00 -1.250000e+01
     vertex -8.910413e+01  6.110309e-01 -1.250000e+01
     vertex -9.800838e+01  2.144193e-01 -1.250000e+01
   endloop
 endfacet
 facet normal  0.000000e+00  0.000000e+00 -1.000000e+00
   outer loop
     vertex -9.800829e+01  2.717141e+00 -1.250000e+01
     vertex -8.910403e+01  3.113281e+00 -1.250000e+01
     vertex -8.910413e+01  6.110309e-01 -1.250000e+01
   endloop
 endfacet
 facet normal  0.000000e+00 -0.000000e+00 -1.000000e+00
   outer loop
     vertex -1.069108e+02  2.283303e+00 -1.250000e+01
     vertex -9.800838e+01  2.144193e-01 -1.250000e+01
     vertex -1.069109e+02 -2.199362e-01 -1.250000e+01
   endloop
 endfacet
 facet normal  0.000000e+00  0.000000e+00 -1.000000e+00
   outer loop
     vertex -1.069108e+02  2.283303e+00 -1.250000e+01
     vertex -9.800829e+01  2.717141e+00 -1.250000e+01
     vertex -9.800838e+01  2.144193e-01 -1.250000e+01
   endloop
 endfacet
 facet normal  0.000000e+00 -0.000000e+00 -1.000000e+00
   outer loop
     vertex -1.158114e+02  1.811773e+00 -1.250000e+01
     vertex -1.069109e+02 -2.199362e-01 -1.250000e+01
     vertex -1.158114e+02 -6.920278e-01 -1.250000e+01
   endloop
 endfacet
 facet normal  0.000000e+00  0.000000e+00 -1.000000e+00
   outer loop
     vertex -1.158114e+02  1.811773e+00 -1.250000e+01
     vertex -1.069108e+02  2.283303e+00 -1.250000e+01
     vertex -1.069109e+02 -2.199362e-01 -1.250000e+01
   endloop
 endfacet
 facet normal  0.000000e+00 -0.000000e+00 -1.000000e+00
   outer loop
     vertex -1.247099e+02  1.302560e+00 -1.250000e+01
     vertex -1.158114e+02 -6.920278e-01 -1.250000e+01
     vertex -1.247099e+02 -1.201847e+00 -1.250000e+01
   endloop
 endfacet
 facet normal  0.000000e+00  0.000000e+00 -1.000000e+00
   outer loop
     vertex -1.247099e+02  1.302560e+00 -1.250000e+01
     vertex -1.158114e+02  1.811773e+00 -1.250000e+01
     vertex -1.158114e+02 -6.920278e-01 -1.250000e+01
   endloop
 endfacet
 facet normal  0.000000e+00 -0.000000e+00 -1.000000e+00
   outer loop
     vertex -1.336061e+02  7.556741e-01 -1.250000e+01
     vertex -1.247099e+02 -1.201847e+00 -1.250000e+01
     vertex -1.336062e+02 -1.749385e+00 -1.250000e+01
   endloop
 endfacet
 facet normal  0.000000e+00  0.000000e+00 -1.000000e+00
   outer loop
     vertex -1.336061e+02  7.556741e-01 -1.250000e+01
     vertex -1.247099e+02  1.302560e+00 -1.250000e+01
     vertex -1.247099e+02 -1.201847e+00 -1.250000e+01
   endloop
 endfacet
 facet normal  0.000000e+00 -0.000000e+00 -1.000000e+00
   outer loop
     vertex -1.425000e+02  1.711240e-01 -1.250000e+01
     vertex -1.336062e+02 -1.749385e+00 -1.250000e+01
     vertex -1.425000e+02 -2.334631e+00 -1.250000e+01
   endloop
 endfacet
 facet normal  0.000000e+00  0.000000e+00 -1.000000e+00
   outer loop
     vertex -1.425000e+02  1.711240e-01 -1.250000e+01
     vertex -1.336061e+02  7.556741e-01 -1.250000e+01
     vertex -1.336062e+02 -1.749385e+00 -1.250000e+01
   endloop
 endfacet
 facet normal  9.950372e-01  0.000000e+00 -9.950372e-02
   outer loop
     vertex  1.443750e+02 -2.462848e+00  6.250192e+00
     vertex  1.450000e+02 -2.273737e-13  1.250000e+01
     vertex  1.450000e+02 -2.505959e+00  1.250000e+01
   endloop
 endfacet
 facet normal  9.950372e-01  9.028473e-15 -9.950372e-02
   outer loop
     vertex  1.443750e+02 -2.462848e+00  6.250192e+00
     vertex  1.443750e+02  4.306000e-02  6.250191e+00
     vertex  1.450000e+02 -2.273737e-13  1.250000e+01
   endloop
 endfacet
 facet normal  9.950372e-01  2.186257e-22 -9.950372e-02
   outer loop
     vertex  1.437500e+02 -2.419923e+00  2.552472e-04
     vertex  1.437500e+02  8.593400e-02  2.546384e-04
     vertex  1.443750e+02  4.306000e-02  6.250191e+00
   endloop
 endfacet
 facet normal  9.950372e-01  9.028566e-15 -9.950372e-02
   outer loop
     vertex  1.437500e+02 -2.419923e+00  2.552472e-04
     vertex  1.443750e+02  4.306000e-02  6.250191e+00
     vertex  1.443750e+02 -2.462848e+00  6.250192e+00
   endloop
 endfacet
 facet normal  9.950372e-01  3.679328e-12 -9.950372e-02
   outer loop
     vertex  1.425000e+02 -2.334631e+00 -1.250000e+01
     vertex  1.425000e+02  1.711240e-01 -1.250000e+01
     vertex  1.437500e+02  8.593400e-02  2.546384e-04
   endloop
 endfacet
 facet normal  9.950372e-01  0.000000e+00 -9.950372e-02
   outer loop
     vertex  1.425000e+02 -2.334631e+00 -1.250000e+01
     vertex  1.437500e+02  8.593400e-02  2.546384e-04
     vertex  1.437500e+02 -2.419923e+00  2.552472e-04
   endloop
 endfacet
 facet normal -0.000000e+00  0.000000e+00  1.000000e+00
   outer loop
     vertex  1.359506e+02 -1.899981e+00  1.250000e+01
     vertex  1.450000e+02 -2.505959e+00  1.250000e+01
     vertex  1.450000e+02 -2.273737e-13  1.250000e+01
   endloop
 endfacet
 facet normal  0.000000e+00  0.000000e+00  1.000000e+00
   outer loop
     vertex  1.359505e+02  6.052580e-01  1.250000e+01
     vertex  1.359506e+02 -1.899981e+00  1.250000e+01
     vertex  1.450000e+02 -2.273737e-13  1.250000e+01
   endloop
 endfacet
 facet normal -0.000000e+00  0.000000e+00  1.000000e+00
   outer loop
     vertex  1.268986e+02 -1.333044e+00  1.250000e+01
     vertex  1.359506e+02 -1.899981e+00  1.250000e+01
     vertex  1.359505e+02  6.052580e-01  1.250000e+01
   endloop
 endfacet
 facet normal  0.000000e+00  0.000000e+00  1.000000e+00
   outer loop
     vertex  1.268986e+02  1.171520e+00  1.250000e+01
     vertex  1.268986e+02 -1.333044e+00  1.250000e+01
     vertex  1.359505e+02  6.052580e-01  1.250000e+01
   endloop
 endfacet
 facet normal -0.000000e+00  0.000000e+00  1.000000e+00
   outer loop
     vertex  1.178443e+02 -8.051613e-01  1.250000e+01
     vertex  1.268986e+02 -1.333044e+00  1.250000e+01
     vertex  1.268986e+02  1.171520e+00  1.250000e+01
   endloop
 endfacet
 facet normal  0.000000e+00  0.000000e+00  1.000000e+00
   outer loop
     vertex  1.178442e+02  1.698774e+00  1.250000e+01
     vertex  1.178443e+02 -8.051613e-01  1.250000e+01
     vertex  1.268986e+02  1.171520e+00  1.250000e+01
   endloop
 endfacet
 facet normal -0.000000e+00  0.000000e+00  1.000000e+00
   outer loop
     vertex  1.087878e+02 -3.163413e-01  1.250000e+01
     vertex  1.178443e+02 -8.051613e-01  1.250000e+01
     vertex  1.178442e+02  1.698774e+00  1.250000e+01
   endloop
 endfacet
 facet normal  0.000000e+00  0.000000e+00  1.000000e+00
   outer loop
     vertex  1.087877e+02  2.187013e+00  1.250000e+01
     vertex  1.087878e+02 -3.163413e-01  1.250000e+01
     vertex  1.178442e+02  1.698774e+00  1.250000e+01
   endloop
 endfacet
 facet normal -0.000000e+00  0.000000e+00  1.000000e+00
   outer loop
     vertex  9.972926e+01  1.334065e-01  1.250000e+01
     vertex  1.087878e+02 -3.163413e-01  1.250000e+01
     vertex  1.087877e+02  2.187013e+00  1.250000e+01
   endloop
 endfacet
 facet normal  0.000000e+00  0.000000e+00  1.000000e+00
   outer loop
     vertex  9.972916e+01  2.636225e+00  1.250000e+01
     vertex  9.972926e+01  1.334065e-01  1.250000e+01
     vertex  1.087877e+02  2.187013e+00  1.250000e+01
   endloop
 endfacet
 facet normal -0.000000e+00  0.000000e+00  1.000000e+00
   outer loop
     vertex  9.066887e+01  5.440739e-01  1.250000e+01
     vertex  9.972926e+01  1.334065e-01  1.250000e+01
     vertex  9.972916e+01  2.636225e+00  1.250000e+01
   endloop
 endfacet
 facet normal  0.000000e+00  0.000000e+00  1.000000e+00
   outer loop
     vertex  9.066876e+01  3.046404e+00  1.250000e+01
     vertex  9.066887e+01  5.440739e-01  1.250000e+01
     vertex  9.972916e+01  2.636225e+00  1.250000e+01
   endloop
 endfacet
 facet normal -0.000000e+00  0.000000e+00  1.000000e+00
   outer loop
     vertex  8.160679e+01  9.156532e-01  1.250000e+01
     vertex  9.066887e+01  5.440739e-01  1.250000e+01
     vertex  9.066876e+01  3.046404e+00  1.250000e+01
   endloop
 endfacet
 facet normal  0.000000e+00  0.000000e+00  1.000000e+00
   outer loop
     vertex  8.160668e+01  3.417540e+00  1.250000e+01
     vertex  8.160679e+01  9.156532e-01  1.250000e+01
     vertex  9.066876e+01  3.046404e+00  1.250000e+01
   endloop
 endfacet
 facet normal -0.000000e+00  0.000000e+00  1.000000e+00
   outer loop
     vertex  7.254319e+01  1.248137e+00  1.250000e+01
     vertex  8.160679e+01  9.156532e-01  1.250000e+01
     vertex  8.160668e+01  3.417540e+00  1.250000e+01
   endloop
 endfacet
 facet normal  0.000000e+00  0.000000e+00  1.000000e+00
   outer loop
     vertex  7.254309e+01  3.749629e+00  1.250000e+01
     vertex  7.254319e+01  1.248137e+00  1.250000e+01
     vertex  8.160668e+01  3.417540e+00  1.250000e+01
   endloop
 endfacet
 facet normal -0.000000e+00  0.000000e+00  1.000000e+00
   outer loop
     vertex  6.347825e+01  1.541520e+00  1.250000e+01
     vertex  7.254319e+01  1.248137e+00  1.250000e+01
     vertex  7.254309e+01  3.749629e+00  1.250000e+01
   endloop
 endfacet
 facet normal  0.000000e+00  0.000000e+00  1.000000e+00
   outer loop
     vertex  6.347815e+01  4.042662e+00  1.250000e+01
     vertex  6.347825e+01  1.541520e+00  1.250000e+01
     vertex  7.254309e+01  3.749629e+00  1.250000e+01
   endloop
 endfacet
 facet normal -0.000000e+00  0.000000e+00  1.000000e+00
   outer loop
     vertex  5.441212e+01  1.795797e+00  1.250000e+01
     vertex  6.347825e+01  1.541520e+00  1.250000e+01
     vertex  6.347815e+01  4.042662e+00  1.250000e+01
   endloop
 endfacet
 facet normal  0.000000e+00  0.000000e+00  1.000000e+00
   outer loop
     vertex  5.441203e+01  4.296636e+00  1.250000e+01
     vertex  5.441212e+01  1.795797e+00  1.250000e+01
     vertex  6.347815e+01  4.042662e+00  1.250000e+01
   endloop
 endfacet
 facet normal -0.000000e+00  0.000000e+00  1.000000e+00
   outer loop
     vertex  4.534498e+01  2.010962e+00  1.250000e+01
     vertex  5.441212e+01  1.795797e+00  1.250000e+01
     vertex  5.441203e+01  4.296636e+00  1.250000e+01
   endloop
 endfacet
 facet normal  0.000000e+00  0.000000e+00  1.000000e+00
   outer loop
     vertex  4.534490e+01  4.511544e+00  1.250000e+01
     vertex  4.534498e+01  2.010962e+00  1.250000e+01
     vertex  5.441203e+01  4.296636e+00  1.250000e+01
   endloop
 endfacet
 facet normal -0.000000e+00  0.000000e+00  1.000000e+00
   outer loop
     vertex  3.627700e+01  2.187011e+00  1.250000e+01
     vertex  4.534498e+01  2.010962e+00  1.250000e+01
     vertex  4.534490e+01  4.511544e+00  1.250000e+01
   endloop
 endfacet
 facet normal  0.000000e+00  0.000000e+00  1.000000e+00
   outer loop
     vertex  3.627693e+01  4.687384e+00  1.250000e+01
     vertex  3.627700e+01  2.187011e+00  1.250000e+01
     vertex  4.534490e+01  4.511544e+00  1.250000e+01
   endloop
 endfacet
 facet normal -0.000000e+00  0.000000e+00  1.000000e+00
   outer loop
     vertex  2.720834e+01  2.323942e+00  1.250000e+01
     vertex  3.627700e+01  2.187011e+00  1.250000e+01
     vertex  3.627693e+01  4.687384e+00  1.250000e+01
   endloop
 endfacet
 facet normal  0.000000e+00  0.000000e+00  1.000000e+00
   outer loop
     vertex  2.720829e+01  4.824152e+00  1.250000e+01
     vertex  2.720834e+01  2.323942e+00  1.250000e+01
     vertex  3.627693e+01  4.687384e+00  1.250000e+01
   endloop
 endfacet
 facet normal -0.000000e+00  0.000000e+00  1.000000e+00
   outer loop
     vertex  1.813917e+01  2.421751e+00  1.250000e+01
     vertex  2.720834e+01  2.323942e+00  1.250000e+01
     vertex  2.720829e+01  4.824152e+00  1.250000e+01
   endloop
 endfacet
 facet normal  0.000000e+00  0.000000e+00  1.000000e+00
   outer loop
     vertex  1.813914e+01  4.921845e+00  1.250000e+01
     vertex  1.813917e+01  2.421751e+00  1.250000e+01
     vertex  2.720829e+01  4.824152e+00  1.250000e+01
   endloop
 endfacet
 facet normal -0.000000e+00  0.000000e+00  1.000000e+00
   outer loop
     vertex  9.069671e+00  2.480438e+00  1.250000e+01
     vertex  1.813917e+01  2.421751e+00  1.250000e+01
     vertex  1.813914e+01  4.921845e+00  1.250000e+01
   endloop
 endfacet
 facet normal  0.000000e+00  0.000000e+00  1.000000e+00
   outer loop
     vertex  9.069654e+00  4.980461e+00  1.250000e+01
     vertex  9.069671e+00  2.480438e+00  1.250000e+01
     vertex  1.813914e+01  4.921845e+00  1.250000e+01
   endloop
 endfacet
 facet normal -0.000000e+00  0.000000e+00  1.000000e+00
   outer loop
     vertex  0.000000e+00  2.500000e+00  1.250000e+01
     vertex  9.069671e+00  2.480438e+00  1.250000e+01
     vertex  9.069654e+00  4.980461e+00  1.250000e+01
   endloop
 endfacet
 facet normal  0.000000e+00  0.000000e+00  1.000000e+00
   outer loop
     vertex -8.526513e-14  5.000000e+00  1.250000e+01
     vertex  0.000000e+00  2.500000e+00  1.250000e+01
     vertex  9.069654e+00  4.980461e+00  1.250000e+01
   endloop
 endfacet
 facet normal -0.000000e+00  0.000000e+00  1.000000e+00
   outer loop
     vertex -9.069654e+00  4.980461e+00  1.250000e+01
     vertex  0.000000e+00  2.500000e+00  1.250000e+01
     vertex -8.526513e-14  5.000000e+00  1.250000e+01
   endloop
 endfacet
 facet normal  0.000000e+00  0.000000e+00  1.000000e+00
   outer loop
     vertex -9.069654e+00  4.980461e+00  1.250000e+01
     vertex -9.069671e+00  2.480438e+00  1.250000e+01
     vertex  0.000000e+00  2.500000e+00  1.250000e+01
   endloop
 endfacet
 facet normal -0.000000e+00  0.000000e+00  1.000000e+00
   outer loop
     vertex -1.813914e+01  4.921845e+00  1.250000e+01
     vertex -9.069671e+00  2.480438e+00  1.250000e+01
     vertex -9.069654e+00  4.980461e+00  1.250000e+01
   endloop
 endfacet
 facet normal  0.000000e+00  0.000000e+00  1.000000e+00
   outer loop
     vertex -1.813914e+01  4.921845e+00  1.250000e+01
     vertex -1.813917e+01  2.421751e+00  1.250000e+01
     vertex -9.069671e+00  2.480438e+00  1.250000e+01
   endloop
 endfacet
 facet normal -0.000000e+00  0.000000e+00  1.000000e+00
   outer loop
     vertex -2.720829e+01  4.824152e+00  1.250000e+01
     vertex -1.813917e+01  2.421751e+00  1.250000e+01
     vertex -1.813914e+01  4.921845e+00  1.250000e+01
   endloop
 endfacet
 facet normal  0.000000e+00  0.000000e+00  1.000000e+00
   outer loop
     vertex -2.720829e+01  4.824152e+00  1.250000e+01
     vertex -2.720834e+01  2.323942e+00  1.250000e+01
     vertex -1.813917e+01  2.421751e+00  1.250000e+01
   endloop
 endfacet
 facet normal -0.000000e+00  0.000000e+00  1.000000e+00
   outer loop
     vertex -3.627693e+01  4.687384e+00  1.250000e+01
     vertex -2.720834e+01  2.323942e+00  1.250000e+01
     vertex -2.720829e+01  4.824152e+00  1.250000e+01
   endloop
 endfacet
 facet normal  0.000000e+00  0.000000e+00  1.000000e+00
   outer loop
     vertex -3.627693e+01  4.687384e+00  1.250000e+01
     vertex -3.627700e+01  2.187011e+00  1.250000e+01
     vertex -2.720834e+01  2.323942e+00  1.250000e+01
   endloop
 endfacet
 facet normal -0.000000e+00  0.000000e+00  1.000000e+00
   outer loop
     vertex -4.534490e+01  4.511544e+00  1.250000e+01
     vertex -3.627700e+01  2.187011e+00  1.250000e+01
     vertex -3.627693e+01  4.687384e+00  1.250000e+01
   endloop
 endfacet
 facet normal  0.000000e+00  0.000000e+00  1.000000e+00
   outer loop
     vertex -4.534490e+01  4.511544e+00  1.250000e+01
     vertex -4.534498e+01  2.010962e+00  1.250000e+01
     vertex -3.627700e+01  2.187011e+00  1.250000e+01
   endloop
 endfacet
 facet normal  0.000000e+00  0.000000e+00  1.000000e+00
   outer loop
     vertex -5.441203e+01  4.296636e+00  1.250000e+01
     vertex -5.441212e+01  1.795797e+00  1.250000e+01
     vertex -4.534498e+01  2.010962e+00  1.250000e+01
   endloop
 endfacet
 facet normal -0.000000e+00  0.000000e+00  1.000000e+00
   outer loop
     vertex -5.441203e+01  4.296636e+00  1.250000e+01
     vertex -4.534498e+01  2.010962e+00  1.250000e+01
     vertex -4.534490e+01  4.511544e+00  1.250000e+01
   endloop
 endfacet
 facet normal  0.000000e+00  0.000000e+00  1.000000e+00
   outer loop
     vertex -6.347815e+01  4.042662e+00  1.250000e+01
     vertex -6.347825e+01  1.541520e+00  1.250000e+01
     vertex -5.441212e+01  1.795797e+00  1.250000e+01
   endloop
 endfacet
 facet normal -0.000000e+00  0.000000e+00  1.000000e+00
   outer loop
     vertex -6.347815e+01  4.042662e+00  1.250000e+01
     vertex -5.441212e+01  1.795797e+00  1.250000e+01
     vertex -5.441203e+01  4.296636e+00  1.250000e+01
   endloop
 endfacet
 facet normal  0.000000e+00  0.000000e+00  1.000000e+00
   outer loop
     vertex -7.254309e+01  3.749629e+00  1.250000e+01
     vertex -7.254319e+01  1.248137e+00  1.250000e+01
     vertex -6.347825e+01  1.541520e+00  1.250000e+01
   endloop
 endfacet
 facet normal -0.000000e+00  0.000000e+00  1.000000e+00
   outer loop
     vertex -7.254309e+01  3.749629e+00  1.250000e+01
     vertex -6.347825e+01  1.541520e+00  1.250000e+01
     vertex -6.347815e+01  4.042662e+00  1.250000e+01
   endloop
 endfacet
 facet normal  0.000000e+00  0.000000e+00  1.000000e+00
   outer loop
     vertex -8.160668e+01  3.417540e+00  1.250000e+01
     vertex -8.160679e+01  9.156532e-01  1.250000e+01
     vertex -7.254319e+01  1.248137e+00  1.250000e+01
   endloop
 endfacet
 facet normal -0.000000e+00  0.000000e+00  1.000000e+00
   outer loop
     vertex -8.160668e+01  3.417540e+00  1.250000e+01
     vertex -7.254319e+01  1.248137e+00  1.250000e+01
     vertex -7.254309e+01  3.749629e+00  1.250000e+01
   endloop
 endfacet
 facet normal  0.000000e+00  0.000000e+00  1.000000e+00
   outer loop
     vertex -9.066876e+01  3.046404e+00  1.250000e+01
     vertex -9.066887e+01  5.440739e-01  1.250000e+01
     vertex -8.160679e+01  9.156532e-01  1.250000e+01
   endloop
 endfacet
 facet normal -0.000000e+00  0.000000e+00  1.000000e+00
   outer loop
     vertex -9.066876e+01  3.046404e+00  1.250000e+01
     vertex -8.160679e+01  9.156532e-01  1.250000e+01
     vertex -8.160668e+01  3.417540e+00  1.250000e+01
   endloop
 endfacet
 facet normal -0.000000e+00  0.000000e+00  1.000000e+00
   outer loop
     vertex -9.972916e+01  2.636225e+00  1.250000e+01
     vertex -9.066887e+01  5.440739e-01  1.250000e+01
     vertex -9.066876e+01  3.046404e+00  1.250000e+01
   endloop
 endfacet
 facet normal  0.000000e+00  0.000000e+00  1.000000e+00
   outer loop
     vertex -9.972916e+01  2.636225e+00  1.250000e+01
     vertex -9.972926e+01  1.334065e-01  1.250000e+01
     vertex -9.066887e+01  5.440739e-01  1.250000e+01
   endloop
 endfacet
 facet normal  0.000000e+00  0.000000e+00  1.000000e+00
   outer loop
     vertex -1.087877e+02  2.187013e+00  1.250000e+01
     vertex -1.087878e+02 -3.163413e-01  1.250000e+01
     vertex -9.972926e+01  1.334065e-01  1.250000e+01
   endloop
 endfacet
 facet normal -0.000000e+00  0.000000e+00  1.000000e+00
   outer loop
     vertex -1.087877e+02  2.187013e+00  1.250000e+01
     vertex -9.972926e+01  1.334065e-01  1.250000e+01
     vertex -9.972916e+01  2.636225e+00  1.250000e+01
   endloop
 endfacet
 facet normal  0.000000e+00  0.000000e+00  1.000000e+00
   outer loop
     vertex -1.178442e+02  1.698774e+00  1.250000e+01
     vertex -1.178443e+02 -8.051613e-01  1.250000e+01
     vertex -1.087878e+02 -3.163413e-01  1.250000e+01
   endloop
 endfacet
 facet normal -0.000000e+00  0.000000e+00  1.000000e+00
   outer loop
     vertex -1.178442e+02  1.698774e+00  1.250000e+01
     vertex -1.087878e+02 -3.163413e-01  1.250000e+01
     vertex -1.087877e+02  2.187013e+00  1.250000e+01
   endloop
 endfacet
 facet normal  0.000000e+00  0.000000e+00  1.000000e+00
   outer loop
     vertex -1.268986e+02  1.171520e+00  1.250000e+01
     vertex -1.268986e+02 -1.333044e+00  1.250000e+01
     vertex -1.178443e+02 -8.051613e-01  1.250000e+01
   endloop
 endfacet
 facet normal -0.000000e+00  0.000000e+00  1.000000e+00
   outer loop
     vertex -1.268986e+02  1.171520e+00  1.250000e+01
     vertex -1.178443e+02 -8.051613e-01  1.250000e+01
     vertex -1.178442e+02  1.698774e+00  1.250000e+01
   endloop
 endfacet
 facet normal  0.000000e+00  0.000000e+00  1.000000e+00
   outer loop
     vertex -1.359505e+02  6.052580e-01  1.250000e+01
     vertex -1.359506e+02 -1.899981e+00  1.250000e+01
     vertex -1.268986e+02 -1.333044e+00  1.250000e+01
   endloop
 endfacet
 facet normal -0.000000e+00  0.000000e+00  1.000000e+00
   outer loop
     vertex -1.359505e+02  6.052580e-01  1.250000e+01
     vertex -1.268986e+02 -1.333044e+00  1.250000e+01
     vertex -1.268986e+02  1.171520e+00  1.250000e+01
   endloop
 endfacet
 facet normal  0.000000e+00  0.000000e+00  1.000000e+00
   outer loop
     vertex -1.450000e+02  0.000000e+00  1.250000e+01
     vertex -1.450000e+02 -2.505959e+00  1.250000e+01
     vertex -1.359506e+02 -1.899981e+00  1.250000e+01
   endloop
 endfacet
 facet normal -0.000000e+00  0.000000e+00  1.000000e+00
   outer loop
     vertex -1.450000e+02  0.000000e+00  1.250000e+01
     vertex -1.359506e+02 -1.899981e+00  1.250000e+01
     vertex -1.359505e+02  6.052580e-01  1.250000e+01
   endloop
 endfacet
 facet normal -6.708504e-02 -9.977472e-01 -1.739982e-04
   outer loop
     vertex  1.377447e+02 -2.017007e+00  6.000000e+00
     vertex  1.443750e+02 -2.462848e+00  6.250192e+00
     vertex  1.450000e+02 -2.505959e+00  1.250000e+01
   endloop
 endfacet
 facet normal -6.708617e-02 -9.977472e-01 -1.440151e-04
   outer loop
     vertex  1.377447e+02 -2.017007e+00  6.000000e+00
     vertex  1.437500e+02 -2.419923e+00  2.552472e-04
     vertex  1.443750e+02 -2.462848e+00  6.250192e+00
   endloop
 endfacet
 facet normal -6.681360e-02 -9.977654e-01 -4.783432e-04
   outer loop
     vertex  1.377447e+02 -2.017007e+00  6.000000e+00
     vertex  1.450000e+02 -2.505959e+00  1.250000e+01
     vertex  1.359506e+02 -1.899981e+00  1.250000e+01
   endloop
 endfacet
 facet normal -6.511923e-02 -9.978775e-01 -8.636924e-06
   outer loop
     vertex  1.360816e+02 -1.908475e+00  6.000000e+00
     vertex  1.377447e+02 -2.017007e+00  6.000000e+00
     vertex  1.359506e+02 -1.899981e+00  1.250000e+01
   endloop
 endfacet
 facet normal -6.432818e-02 -9.979288e-01  7.375488e-06
   outer loop
     vertex  1.344184e+02 -1.801261e+00  6.000000e+00
     vertex  1.360816e+02 -1.908475e+00  6.000000e+00
     vertex  1.359506e+02 -1.899981e+00  1.250000e+01
   endloop
 endfacet
 facet normal -6.353709e-02 -9.979795e-01 -1.798704e-04
   outer loop
     vertex  1.327551e+02 -1.695366e+00  6.000000e+00
     vertex  1.344184e+02 -1.801261e+00  6.000000e+00
     vertex  1.359506e+02 -1.899981e+00  1.250000e+01
   endloop
 endfacet
 facet normal -6.681739e-02 -9.977652e-01 -1.262134e-04
   outer loop
     vertex  1.377447e+02 -2.017007e+00 -6.000000e+00
     vertex  1.425000e+02 -2.334631e+00 -1.250000e+01
     vertex  1.437500e+02 -2.419923e+00  2.552472e-04
   endloop
 endfacet
 facet normal -6.694293e-02 -9.977568e-01  0.000000e+00
   outer loop
     vertex  1.377447e+02 -2.017007e+00 -6.000000e+00
     vertex  1.437500e+02 -2.419923e+00  2.552472e-04
     vertex  1.377447e+02 -2.017007e+00  6.000000e+00
   endloop
 endfacet
 facet normal -6.250886e-02 -9.980442e-01 -6.874036e-04
   outer loop
     vertex  1.268986e+02 -1.333044e+00  1.250000e+01
     vertex  1.327551e+02 -1.695366e+00  6.000000e+00
     vertex  1.359506e+02 -1.899981e+00  1.250000e+01
   endloop
 endfacet
 facet normal -6.174886e-02 -9.980917e-01  0.000000e+00
   outer loop
     vertex  1.327551e+02 -1.695366e+00 -6.000000e+00
     vertex  1.327551e+02 -1.695366e+00  6.000000e+00
     vertex  1.268986e+02 -1.333044e+00  1.250000e+01
   endloop
 endfacet
 facet normal -6.353710e-02 -9.979795e-01 -2.539344e-05
   outer loop
     vertex  1.336062e+02 -1.749385e+00 -1.250000e+01
     vertex  1.344184e+02 -1.801261e+00 -6.000000e+00
     vertex  1.327551e+02 -1.695366e+00 -6.000000e+00
   endloop
 endfacet
 facet normal -6.432818e-02 -9.979288e-01  7.386304e-05
   outer loop
     vertex  1.336062e+02 -1.749385e+00 -1.250000e+01
     vertex  1.360816e+02 -1.908475e+00 -6.000000e+00
     vertex  1.344184e+02 -1.801261e+00 -6.000000e+00
   endloop
 endfacet
 facet normal -6.511922e-02 -9.978774e-01  3.763777e-04
   outer loop
     vertex  1.336062e+02 -1.749385e+00 -1.250000e+01
     vertex  1.377447e+02 -2.017007e+00 -6.000000e+00
     vertex  1.360816e+02 -1.908475e+00 -6.000000e+00
   endloop
 endfacet
 facet normal -6.566152e-02 -9.978417e-01  7.231342e-04
   outer loop
     vertex  1.336062e+02 -1.749385e+00 -1.250000e+01
     vertex  1.425000e+02 -2.334631e+00 -1.250000e+01
     vertex  1.377447e+02 -2.017007e+00 -6.000000e+00
   endloop
 endfacet
 facet normal -6.143083e-02 -9.981113e-01  2.514854e-04
   outer loop
     vertex  1.247099e+02 -1.201847e+00 -1.250000e+01
     vertex  1.336062e+02 -1.749385e+00 -1.250000e+01
     vertex  1.327551e+02 -1.695366e+00 -6.000000e+00
   endloop
 endfacet
 facet normal -6.133442e-02 -9.981173e-01  1.316987e-04
   outer loop
     vertex  1.247099e+02 -1.201847e+00 -1.250000e+01
     vertex  1.327551e+02 -1.695366e+00 -6.000000e+00
     vertex  1.268986e+02 -1.333044e+00  1.250000e+01
   endloop
 endfacet
 facet normal -5.820297e-02 -9.983048e-01 -1.434375e-04
   outer loop
     vertex  1.247099e+02 -1.201847e+00 -1.250000e+01
     vertex  1.268986e+02 -1.333044e+00  1.250000e+01
     vertex  1.178443e+02 -8.051613e-01  1.250000e+01
   endloop
 endfacet
 facet normal -5.719902e-02 -9.983628e-01  1.331920e-04
   outer loop
     vertex  1.158114e+02 -6.920278e-01 -1.250000e+01
     vertex  1.247099e+02 -1.201847e+00 -1.250000e+01
     vertex  1.178443e+02 -8.051613e-01  1.250000e+01
   endloop
 endfacet
 facet normal -5.389599e-02 -9.985465e-01 -1.362252e-04
   outer loop
     vertex  1.158114e+02 -6.920278e-01 -1.250000e+01
     vertex  1.178443e+02 -8.051613e-01  1.250000e+01
     vertex  1.087878e+02 -3.163413e-01  1.250000e+01
   endloop
 endfacet
 facet normal -5.296618e-02 -9.985963e-01  1.257464e-04
   outer loop
     vertex  1.069109e+02 -2.199362e-01 -1.250000e+01
     vertex  1.158114e+02 -6.920278e-01 -1.250000e+01
     vertex  1.087878e+02 -3.163413e-01  1.250000e+01
   endloop
 endfacet
 facet normal -4.958800e-02 -9.987698e-01 -1.285463e-04
   outer loop
     vertex  1.069109e+02 -2.199362e-01 -1.250000e+01
     vertex  1.087878e+02 -3.163413e-01  1.250000e+01
     vertex  9.972926e+01  1.334065e-01  1.250000e+01
   endloop
 endfacet
 facet normal -4.873239e-02 -9.988119e-01  1.178341e-04
   outer loop
     vertex  9.800838e+01  2.144193e-01 -1.250000e+01
     vertex  1.069109e+02 -2.199362e-01 -1.250000e+01
     vertex  9.972926e+01  1.334065e-01  1.250000e+01
   endloop
 endfacet
 facet normal -4.527909e-02 -9.989744e-01 -1.204007e-04
   outer loop
     vertex  9.800838e+01  2.144193e-01 -1.250000e+01
     vertex  9.972926e+01  1.334065e-01  1.250000e+01
     vertex  9.066887e+01  5.440739e-01  1.250000e+01
   endloop
 endfacet
 facet normal -4.449773e-02 -9.990095e-01  1.094552e-04
   outer loop
     vertex  8.910413e+01  6.110309e-01 -1.250000e+01
     vertex  9.800838e+01  2.144193e-01 -1.250000e+01
     vertex  9.066887e+01  5.440739e-01  1.250000e+01
   endloop
 endfacet
 facet normal -4.096934e-02 -9.991604e-01 -1.117885e-04
   outer loop
     vertex  8.910413e+01  6.110309e-01 -1.250000e+01
     vertex  9.066887e+01  5.440739e-01  1.250000e+01
     vertex  8.160679e+01  9.156532e-01  1.250000e+01
   endloop
 endfacet
 facet normal -4.026226e-02 -9.991891e-01  1.006097e-04
   outer loop
     vertex  8.019828e+01  9.698915e-01 -1.250000e+01
     vertex  8.910413e+01  6.110309e-01 -1.250000e+01
     vertex  8.160679e+01  9.156532e-01  1.250000e+01
   endloop
 endfacet
 facet normal -3.665882e-02 -9.993278e-01 -1.027096e-04
   outer loop
     vertex  8.019828e+01  9.698915e-01 -1.250000e+01
     vertex  8.160679e+01  9.156532e-01  1.250000e+01
     vertex  7.254319e+01  1.248137e+00  1.250000e+01
   endloop
 endfacet
 facet normal -3.602607e-02 -9.993508e-01  9.129743e-05
   outer loop
     vertex  7.129099e+01  1.290995e+00 -1.250000e+01
     vertex  8.019828e+01  9.698915e-01 -1.250000e+01
     vertex  7.254319e+01  1.248137e+00  1.250000e+01
   endloop
 endfacet
 facet normal -3.234762e-02 -9.994767e-01 -9.316406e-05
   outer loop
     vertex  7.129099e+01  1.290995e+00 -1.250000e+01
     vertex  7.254319e+01  1.248137e+00  1.250000e+01
     vertex  6.347825e+01  1.541520e+00  1.250000e+01
   endloop
 endfacet
 facet normal -2.803582e-02 -9.996069e-01 -8.315186e-05
   outer loop
     vertex  6.238242e+01  1.574334e+00 -1.250000e+01
     vertex  6.347825e+01  1.541520e+00  1.250000e+01
     vertex  5.441212e+01  1.795797e+00  1.250000e+01
   endloop
 endfacet
 facet normal -3.178923e-02 -9.994946e-01  8.151855e-05
   outer loop
     vertex  6.238242e+01  1.574334e+00 -1.250000e+01
     vertex  7.129099e+01  1.290995e+00 -1.250000e+01
     vertex  6.347825e+01  1.541520e+00  1.250000e+01
   endloop
 endfacet
 facet normal -2.372350e-02 -9.997186e-01 -7.267299e-05
   outer loop
     vertex  5.347273e+01  1.819906e+00 -1.250000e+01
     vertex  5.441212e+01  1.795797e+00  1.250000e+01
     vertex  4.534498e+01  2.010962e+00  1.250000e+01
   endloop
 endfacet
 facet normal -2.755182e-02 -9.996204e-01  7.127302e-05
   outer loop
     vertex  5.347273e+01  1.819906e+00 -1.250000e+01
     vertex  6.238242e+01  1.574334e+00 -1.250000e+01
     vertex  5.441212e+01  1.795797e+00  1.250000e+01
   endloop
 endfacet
 facet normal -1.941074e-02 -9.998116e-01 -6.172747e-05
   outer loop
     vertex  4.456208e+01  2.027705e+00 -1.250000e+01
     vertex  4.534498e+01  2.010962e+00  1.250000e+01
     vertex  3.627700e+01  2.187011e+00  1.250000e+01
   endloop
 endfacet
 facet normal -2.331392e-02 -9.997282e-01  6.056083e-05
   outer loop
     vertex  4.456208e+01  2.027705e+00 -1.250000e+01
     vertex  5.347273e+01  1.819906e+00 -1.250000e+01
     vertex  4.534498e+01  2.010962e+00  1.250000e+01
   endloop
 endfacet
 facet normal -1.509762e-02 -9.998860e-01 -5.031529e-05
   outer loop
     vertex  3.565062e+01  2.197727e+00 -1.250000e+01
     vertex  3.627700e+01  2.187011e+00  1.250000e+01
     vertex  2.720834e+01  2.323942e+00  1.250000e+01
   endloop
 endfacet
 facet normal -1.907560e-02 -9.998180e-01  4.938198e-05
   outer loop
     vertex  3.565062e+01  2.197727e+00 -1.250000e+01
     vertex  4.456208e+01  2.027705e+00 -1.250000e+01
     vertex  3.627700e+01  2.187011e+00  1.250000e+01
   endloop
 endfacet
 facet normal -1.078421e-02 -9.999418e-01 -3.843645e-05
   outer loop
     vertex  2.673853e+01  2.329970e+00 -1.250000e+01
     vertex  2.720834e+01  2.323942e+00  1.250000e+01
     vertex  1.813917e+01  2.421751e+00  1.250000e+01
   endloop
 endfacet
 facet normal -1.483693e-02 -9.998899e-01  3.773647e-05
   outer loop
     vertex  2.673853e+01  2.329970e+00 -1.250000e+01
     vertex  3.565062e+01  2.197727e+00 -1.250000e+01
     vertex  2.720834e+01  2.323942e+00  1.250000e+01
   endloop
 endfacet
 facet normal -6.470608e-03 -9.999791e-01 -2.609096e-05
   outer loop
     vertex  1.782595e+01  2.424430e+00 -1.250000e+01
     vertex  1.813917e+01  2.421751e+00  1.250000e+01
     vertex  9.069671e+00  2.480438e+00  1.250000e+01
   endloop
 endfacet
 facet normal -1.059800e-02 -9.999438e-01  2.562430e-05
   outer loop
     vertex  1.782595e+01  2.424430e+00 -1.250000e+01
     vertex  2.673853e+01  2.329970e+00 -1.250000e+01
     vertex  1.813917e+01  2.421751e+00  1.250000e+01
   endloop
 endfacet
 facet normal -2.156883e-03 -9.999977e-01 -1.327881e-05
   outer loop
     vertex  8.913056e+00  2.481108e+00 -1.250000e+01
     vertex  9.069671e+00  2.480438e+00  1.250000e+01
     vertex  0.000000e+00  2.500000e+00  1.250000e+01
   endloop
 endfacet
 facet normal -6.358875e-03 -9.999798e-01  1.304548e-05
   outer loop
     vertex  8.913056e+00  2.481108e+00 -1.250000e+01
     vertex  1.782595e+01  2.424430e+00 -1.250000e+01
     vertex  9.069671e+00  2.480438e+00  1.250000e+01
   endloop
 endfacet
 facet normal -2.119638e-03 -9.999978e-01  1.178367e-15
   outer loop
     vertex -1.389822e-11  2.500000e+00 -1.250000e+01
     vertex  8.913056e+00  2.481108e+00 -1.250000e+01
     vertex  0.000000e+00  2.500000e+00  1.250000e+01
   endloop
 endfacet
 facet normal  2.156883e-03 -9.999977e-01 -1.327881e-05
   outer loop
     vertex -8.913056e+00  2.481108e+00 -1.250000e+01
     vertex  0.000000e+00  2.500000e+00  1.250000e+01
     vertex -9.069671e+00  2.480438e+00  1.250000e+01
   endloop
 endfacet
 facet normal  2.119638e-03 -9.999978e-01 -1.178348e-15
   outer loop
     vertex -8.913056e+00  2.481108e+00 -1.250000e+01
     vertex -1.389822e-11  2.500000e+00 -1.250000e+01
     vertex  0.000000e+00  2.500000e+00  1.250000e+01
   endloop
 endfacet
 facet normal  6.470608e-03 -9.999791e-01 -2.609096e-05
   outer loop
     vertex -1.782595e+01  2.424430e+00 -1.250000e+01
     vertex -9.069671e+00  2.480438e+00  1.250000e+01
     vertex -1.813917e+01  2.421751e+00  1.250000e+01
   endloop
 endfacet
 facet normal  6.358875e-03 -9.999798e-01  1.304548e-05
   outer loop
     vertex -1.782595e+01  2.424430e+00 -1.250000e+01
     vertex -8.913056e+00  2.481108e+00 -1.250000e+01
     vertex -9.069671e+00  2.480438e+00  1.250000e+01
   endloop
 endfacet
 facet normal  1.078421e-02 -9.999418e-01 -3.843645e-05
   outer loop
     vertex -2.673853e+01  2.329970e+00 -1.250000e+01
     vertex -1.813917e+01  2.421751e+00  1.250000e+01
     vertex -2.720834e+01  2.323942e+00  1.250000e+01
   endloop
 endfacet
 facet normal  1.059800e-02 -9.999438e-01  2.562430e-05
   outer loop
     vertex -2.673853e+01  2.329970e+00 -1.250000e+01
     vertex -1.782595e+01  2.424430e+00 -1.250000e+01
     vertex -1.813917e+01  2.421751e+00  1.250000e+01
   endloop
 endfacet
 facet normal  1.509762e-02 -9.998860e-01 -5.031529e-05
   outer loop
     vertex -3.565062e+01  2.197727e+00 -1.250000e+01
     vertex -2.720834e+01  2.323942e+00  1.250000e+01
     vertex -3.627700e+01  2.187011e+00  1.250000e+01
   endloop
 endfacet
 facet normal  1.483693e-02 -9.998899e-01  3.773647e-05
   outer loop
     vertex -3.565062e+01  2.197727e+00 -1.250000e+01
     vertex -2.673853e+01  2.329970e+00 -1.250000e+01
     vertex -2.720834e+01  2.323942e+00  1.250000e+01
   endloop
 endfacet
 facet normal  1.941074e-02 -9.998116e-01 -6.172747e-05
   outer loop
     vertex -4.456208e+01  2.027705e+00 -1.250000e+01
     vertex -3.627700e+01  2.187011e+00  1.250000e+01
     vertex -4.534498e+01  2.010962e+00  1.250000e+01
   endloop
 endfacet
 facet normal  1.907560e-02 -9.998180e-01  4.938198e-05
   outer loop
     vertex -4.456208e+01  2.027705e+00 -1.250000e+01
     vertex -3.565062e+01  2.197727e+00 -1.250000e+01
     vertex -3.627700e+01  2.187011e+00  1.250000e+01
   endloop
 endfacet
 facet normal  2.372350e-02 -9.997186e-01 -7.267299e-05
   outer loop
     vertex -5.347273e+01  1.819906e+00 -1.250000e+01
     vertex -4.534498e+01  2.010962e+00  1.250000e+01
     vertex -5.441212e+01  1.795797e+00  1.250000e+01
   endloop
 endfacet
 facet normal  2.331392e-02 -9.997282e-01  6.056083e-05
   outer loop
     vertex -5.347273e+01  1.819906e+00 -1.250000e+01
     vertex -4.456208e+01  2.027705e+00 -1.250000e+01
     vertex -4.534498e+01  2.010962e+00  1.250000e+01
   endloop
 endfacet
 facet normal  2.803582e-02 -9.996069e-01 -8.315186e-05
   outer loop
     vertex -6.238242e+01  1.574334e+00 -1.250000e+01
     vertex -5.441212e+01  1.795797e+00  1.250000e+01
     vertex -6.347825e+01  1.541520e+00  1.250000e+01
   endloop
 endfacet
 facet normal  2.755182e-02 -9.996204e-01  7.127302e-05
   outer loop
     vertex -6.238242e+01  1.574334e+00 -1.250000e+01
     vertex -5.347273e+01  1.819906e+00 -1.250000e+01
     vertex -5.441212e+01  1.795797e+00  1.250000e+01
   endloop
 endfacet
 facet normal  3.178923e-02 -9.994946e-01  8.151855e-05
   outer loop
     vertex -7.129099e+01  1.290995e+00 -1.250000e+01
     vertex -6.238242e+01  1.574334e+00 -1.250000e+01
     vertex -6.347825e+01  1.541520e+00  1.250000e+01
   endloop
 endfacet
 facet normal  3.234762e-02 -9.994767e-01 -9.316406e-05
   outer loop
     vertex -7.129099e+01  1.290995e+00 -1.250000e+01
     vertex -6.347825e+01  1.541520e+00  1.250000e+01
     vertex -7.254319e+01  1.248137e+00  1.250000e+01
   endloop
 endfacet
 facet normal  3.602607e-02 -9.993508e-01  9.129743e-05
   outer loop
     vertex -8.019828e+01  9.698915e-01 -1.250000e+01
     vertex -7.129099e+01  1.290995e+00 -1.250000e+01
     vertex -7.254319e+01  1.248137e+00  1.250000e+01
   endloop
 endfacet
 facet normal  3.665882e-02 -9.993278e-01 -1.027096e-04
   outer loop
     vertex -8.019828e+01  9.698915e-01 -1.250000e+01
     vertex -7.254319e+01  1.248137e+00  1.250000e+01
     vertex -8.160679e+01  9.156532e-01  1.250000e+01
   endloop
 endfacet
 facet normal  4.026226e-02 -9.991891e-01  1.006097e-04
   outer loop
     vertex -8.910413e+01  6.110309e-01 -1.250000e+01
     vertex -8.019828e+01  9.698915e-01 -1.250000e+01
     vertex -8.160679e+01  9.156532e-01  1.250000e+01
   endloop
 endfacet
 facet normal  4.096934e-02 -9.991604e-01 -1.117885e-04
   outer loop
     vertex -8.910413e+01  6.110309e-01 -1.250000e+01
     vertex -8.160679e+01  9.156532e-01  1.250000e+01
     vertex -9.066887e+01  5.440739e-01  1.250000e+01
   endloop
 endfacet
 facet normal  4.449773e-02 -9.990095e-01  1.094552e-04
   outer loop
     vertex -9.800838e+01  2.144193e-01 -1.250000e+01
     vertex -8.910413e+01  6.110309e-01 -1.250000e+01
     vertex -9.066887e+01  5.440739e-01  1.250000e+01
   endloop
 endfacet
 facet normal  4.527909e-02 -9.989744e-01 -1.204007e-04
   outer loop
     vertex -9.800838e+01  2.144193e-01 -1.250000e+01
     vertex -9.066887e+01  5.440739e-01  1.250000e+01
     vertex -9.972926e+01  1.334065e-01  1.250000e+01
   endloop
 endfacet
 facet normal  4.873239e-02 -9.988119e-01  1.178341e-04
   outer loop
     vertex -1.069109e+02 -2.199362e-01 -1.250000e+01
     vertex -9.800838e+01  2.144193e-01 -1.250000e+01
     vertex -9.972926e+01  1.334065e-01  1.250000e+01
   endloop
 endfacet
 facet normal  4.958800e-02 -9.987698e-01 -1.285463e-04
   outer loop
     vertex -1.069109e+02 -2.199362e-01 -1.250000e+01
     vertex -9.972926e+01  1.334065e-01  1.250000e+01
     vertex -1.087878e+02 -3.163413e-01  1.250000e+01
   endloop
 endfacet
 facet normal  5.296618e-02 -9.985963e-01  1.257464e-04
   outer loop
     vertex -1.158114e+02 -6.920278e-01 -1.250000e+01
     vertex -1.069109e+02 -2.199362e-01 -1.250000e+01
     vertex -1.087878e+02 -3.163413e-01  1.250000e+01
   endloop
 endfacet
 facet normal  5.389599e-02 -9.985465e-01 -1.362252e-04
   outer loop
     vertex -1.158114e+02 -6.920278e-01 -1.250000e+01
     vertex -1.087878e+02 -3.163413e-01  1.250000e+01
     vertex -1.178443e+02 -8.051613e-01  1.250000e+01
   endloop
 endfacet
 facet normal  6.250886e-02 -9.980442e-01 -6.874036e-04
   outer loop
     vertex -1.327551e+02 -1.695366e+00  6.000000e+00
     vertex -1.268986e+02 -1.333044e+00  1.250000e+01
     vertex -1.359506e+02 -1.899981e+00  1.250000e+01
   endloop
 endfacet
 facet normal  5.719902e-02 -9.983628e-01  1.331920e-04
   outer loop
     vertex -1.247099e+02 -1.201847e+00 -1.250000e+01
     vertex -1.158114e+02 -6.920278e-01 -1.250000e+01
     vertex -1.178443e+02 -8.051613e-01  1.250000e+01
   endloop
 endfacet
 facet normal  5.820297e-02 -9.983048e-01 -1.434375e-04
   outer loop
     vertex -1.247099e+02 -1.201847e+00 -1.250000e+01
     vertex -1.178443e+02 -8.051613e-01  1.250000e+01
     vertex -1.268986e+02 -1.333044e+00  1.250000e+01
   endloop
 endfacet
 facet normal  6.353709e-02 -9.979795e-01 -1.798704e-04
   outer loop
     vertex -1.344184e+02 -1.801261e+00  6.000000e+00
     vertex -1.327551e+02 -1.695366e+00  6.000000e+00
     vertex -1.359506e+02 -1.899981e+00  1.250000e+01
   endloop
 endfacet
 facet normal  6.432818e-02 -9.979288e-01  7.375488e-06
   outer loop
     vertex -1.360816e+02 -1.908475e+00  6.000000e+00
     vertex -1.344184e+02 -1.801261e+00  6.000000e+00
     vertex -1.359506e+02 -1.899981e+00  1.250000e+01
   endloop
 endfacet
 facet normal  6.511923e-02 -9.978775e-01 -8.636924e-06
   outer loop
     vertex -1.377447e+02 -2.017007e+00  6.000000e+00
     vertex -1.360816e+02 -1.908475e+00  6.000000e+00
     vertex -1.359506e+02 -1.899981e+00  1.250000e+01
   endloop
 endfacet
 facet normal  6.174886e-02 -9.980917e-01  0.000000e+00
   outer loop
     vertex -1.327551e+02 -1.695366e+00 -6.000000e+00
     vertex -1.268986e+02 -1.333044e+00  1.250000e+01
     vertex -1.327551e+02 -1.695366e+00  6.000000e+00
   endloop
 endfacet
 facet normal  6.133442e-02 -9.981173e-01  1.316987e-04
   outer loop
     vertex -1.327551e+02 -1.695366e+00 -6.000000e+00
     vertex -1.247099e+02 -1.201847e+00 -1.250000e+01
     vertex -1.268986e+02 -1.333044e+00  1.250000e+01
   endloop
 endfacet
 facet normal  6.681360e-02 -9.977654e-01 -4.783432e-04
   outer loop
     vertex -1.450000e+02 -2.505959e+00  1.250000e+01
     vertex -1.377447e+02 -2.017007e+00  6.000000e+00
     vertex -1.359506e+02 -1.899981e+00  1.250000e+01
   endloop
 endfacet
 facet normal  6.143083e-02 -9.981113e-01  2.514854e-04
   outer loop
     vertex -1.336062e+02 -1.749385e+00 -1.250000e+01
     vertex -1.247099e+02 -1.201847e+00 -1.250000e+01
     vertex -1.327551e+02 -1.695366e+00 -6.000000e+00
   endloop
 endfacet
 facet normal  6.432818e-02 -9.979288e-01  7.386304e-05
   outer loop
     vertex -1.336062e+02 -1.749385e+00 -1.250000e+01
     vertex -1.344184e+02 -1.801261e+00 -6.000000e+00
     vertex -1.360816e+02 -1.908475e+00 -6.000000e+00
   endloop
 endfacet
 facet normal  6.353710e-02 -9.979795e-01 -2.539344e-05
   outer loop
     vertex -1.336062e+02 -1.749385e+00 -1.250000e+01
     vertex -1.327551e+02 -1.695366e+00 -6.000000e+00
     vertex -1.344184e+02 -1.801261e+00 -6.000000e+00
   endloop
 endfacet
 facet normal  6.511922e-02 -9.978774e-01  3.763777e-04
   outer loop
     vertex -1.377447e+02 -2.017007e+00 -6.000000e+00
     vertex -1.336062e+02 -1.749385e+00 -1.250000e+01
     vertex -1.360816e+02 -1.908475e+00 -6.000000e+00
   endloop
 endfacet
 facet normal  6.708504e-02 -9.977472e-01 -1.739982e-04
   outer loop
     vertex -1.443750e+02 -2.462848e+00  6.250192e+00
     vertex -1.377447e+02 -2.017007e+00  6.000000e+00
     vertex -1.450000e+02 -2.505959e+00  1.250000e+01
   endloop
 endfacet
 facet normal  6.708617e-02 -9.977472e-01 -1.440151e-04
   outer loop
     vertex -1.437500e+02 -2.419923e+00  2.552472e-04
     vertex -1.377447e+02 -2.017007e+00  6.000000e+00
     vertex -1.443750e+02 -2.462848e+00  6.250192e+00
   endloop
 endfacet
 facet normal  6.694293e-02 -9.977568e-01  0.000000e+00
   outer loop
     vertex -1.437500e+02 -2.419923e+00  2.552472e-04
     vertex -1.377447e+02 -2.017007e+00 -6.000000e+00
     vertex -1.377447e+02 -2.017007e+00  6.000000e+00
   endloop
 endfacet
 facet normal  6.566152e-02 -9.978417e-01  7.231342e-04
   outer loop
     vertex -1.425000e+02 -2.334631e+00 -1.250000e+01
     vertex -1.336062e+02 -1.749385e+00 -1.250000e+01
     vertex -1.377447e+02 -2.017007e+00 -6.000000e+00
   endloop
 endfacet
 facet normal  6.681739e-02 -9.977652e-01 -1.262134e-04
   outer loop
     vertex -1.425000e+02 -2.334631e+00 -1.250000e+01
     vertex -1.377447e+02 -2.017007e+00 -6.000000e+00
     vertex -1.437500e+02 -2.419923e+00  2.552472e-04
   endloop
 endfacet
 facet normal -9.979288e-01  6.432818e-02  0.000000e+00
   outer loop
     vertex  1.320476e+02 -1.267110e+01 -6.000000e+00
     vertex  1.327551e+02 -1.695366e+00  6.000000e+00
     vertex  1.327551e+02 -1.695366e+00 -6.000000e+00
   endloop
 endfacet
 facet normal -9.979288e-01  6.432818e-02  0.000000e+00
   outer loop
     vertex  1.320476e+02 -1.267110e+01 -6.000000e+00
     vertex  1.320476e+02 -1.267110e+01  6.000000e+00
     vertex  1.327551e+02 -1.695366e+00  6.000000e+00
   endloop
 endfacet
 facet normal  0.000000e+00  0.000000e+00 -1.000000e+00
   outer loop
     vertex  1.372624e+02 -9.499989e+00 -6.000000e+00
     vertex  1.370372e+02 -1.299274e+01 -6.000000e+00
     vertex  1.320476e+02 -1.267110e+01 -6.000000e+00
   endloop
 endfacet
 facet normal -0.000000e+00  0.000000e+00 -1.000000e+00
   outer loop
     vertex  1.391296e+02 -1.162450e+01 -6.000000e+00
     vertex  1.370372e+02 -1.299274e+01 -6.000000e+00
     vertex  1.372624e+02 -9.499989e+00 -6.000000e+00
   endloop
 endfacet
 facet normal  0.000000e+00 -0.000000e+00 -1.000000e+00
   outer loop
     vertex  1.327551e+02 -1.695366e+00 -6.000000e+00
     vertex  1.372624e+02 -9.499989e+00 -6.000000e+00
     vertex  1.320476e+02 -1.267110e+01 -6.000000e+00
   endloop
 endfacet
 facet normal -0.000000e+00 -0.000000e+00 -1.000000e+00
   outer loop
     vertex  1.344184e+02 -1.801261e+00 -6.000000e+00
     vertex  1.372624e+02 -9.499989e+00 -6.000000e+00
     vertex  1.327551e+02 -1.695366e+00 -6.000000e+00
   endloop
 endfacet
 facet normal -0.000000e+00 -0.000000e+00 -1.000000e+00
   outer loop
     vertex  1.360816e+02 -1.908475e+00 -6.000000e+00
     vertex  1.372624e+02 -9.499989e+00 -6.000000e+00
     vertex  1.344184e+02 -1.801261e+00 -6.000000e+00
   endloop
 endfacet
 facet normal -0.000000e+00  0.000000e+00 -1.000000e+00
   outer loop
     vertex  1.377447e+02 -2.017007e+00 -6.000000e+00
     vertex  1.372624e+02 -9.499989e+00 -6.000000e+00
     vertex  1.360816e+02 -1.908475e+00 -6.000000e+00
   endloop
 endfacet
 facet normal  9.979288e-01 -6.432818e-02  0.000000e+00
   outer loop
     vertex  1.377447e+02 -2.017007e+00 -6.000000e+00
     vertex  1.372624e+02 -9.499989e+00  6.000000e+00
     vertex  1.372624e+02 -9.499989e+00 -6.000000e+00
   endloop
 endfacet
 facet normal  9.979288e-01 -6.432818e-02  0.000000e+00
   outer loop
     vertex  1.377447e+02 -2.017007e+00 -6.000000e+00
     vertex  1.377447e+02 -2.017007e+00  6.000000e+00
     vertex  1.372624e+02 -9.499989e+00  6.000000e+00
   endloop
 endfacet
 facet normal  0.000000e+00  0.000000e+00  1.000000e+00
   outer loop
     vertex  1.372624e+02 -9.499989e+00  6.000000e+00
     vertex  1.320476e+02 -1.267110e+01  6.000000e+00
     vertex  1.370372e+02 -1.299274e+01  6.000000e+00
   endloop
 endfacet
 facet normal  0.000000e+00  0.000000e+00  1.000000e+00
   outer loop
     vertex  1.391296e+02 -1.162450e+01  6.000000e+00
     vertex  1.372624e+02 -9.499989e+00  6.000000e+00
     vertex  1.370372e+02 -1.299274e+01  6.000000e+00
   endloop
 endfacet
 facet normal  0.000000e+00  0.000000e+00  1.000000e+00
   outer loop
     vertex  1.327551e+02 -1.695366e+00  6.000000e+00
     vertex  1.320476e+02 -1.267110e+01  6.000000e+00
     vertex  1.372624e+02 -9.499989e+00  6.000000e+00
   endloop
 endfacet
 facet normal  0.000000e+00  0.000000e+00  1.000000e+00
   outer loop
     vertex  1.344184e+02 -1.801261e+00  6.000000e+00
     vertex  1.327551e+02 -1.695366e+00  6.000000e+00
     vertex  1.372624e+02 -9.499989e+00  6.000000e+00
   endloop
 endfacet
 facet normal  0.000000e+00  0.000000e+00  1.000000e+00
   outer loop
     vertex  1.360816e+02 -1.908475e+00  6.000000e+00
     vertex  1.344184e+02 -1.801261e+00  6.000000e+00
     vertex  1.372624e+02 -9.499989e+00  6.000000e+00
   endloop
 endfacet
 facet normal  0.000000e+00  0.000000e+00  1.000000e+00
   outer loop
     vertex  1.377447e+02 -2.017007e+00  6.000000e+00
     vertex  1.360816e+02 -1.908475e+00  6.000000e+00
     vertex  1.372624e+02 -9.499989e+00  6.000000e+00
   endloop
 endfacet
 facet normal  0.000000e+00  0.000000e+00  1.000000e+00
   outer loop
     vertex -1.372624e+02 -9.499989e+00  6.000000e+00
     vertex -1.370372e+02 -1.299274e+01  6.000000e+00
     vertex -1.320476e+02 -1.267110e+01  6.000000e+00
   endloop
 endfacet
 facet normal -0.000000e+00  0.000000e+00  1.000000e+00
   outer loop
     vertex -1.391296e+02 -1.162450e+01  6.000000e+00
     vertex -1.370372e+02 -1.299274e+01  6.000000e+00
     vertex -1.372624e+02 -9.499989e+00  6.000000e+00
   endloop
 endfacet
 facet normal  0.000000e+00  0.000000e+00  1.000000e+00
   outer loop
     vertex -1.327551e+02 -1.695366e+00  6.000000e+00
     vertex -1.372624e+02 -9.499989e+00  6.000000e+00
     vertex -1.320476e+02 -1.267110e+01  6.000000e+00
   endloop
 endfacet
 facet normal -0.000000e+00  0.000000e+00  1.000000e+00
   outer loop
     vertex -1.344184e+02 -1.801261e+00  6.000000e+00
     vertex -1.372624e+02 -9.499989e+00  6.000000e+00
     vertex -1.327551e+02 -1.695366e+00  6.000000e+00
   endloop
 endfacet
 facet normal -0.000000e+00  0.000000e+00  1.000000e+00
   outer loop
     vertex -1.360816e+02 -1.908475e+00  6.000000e+00
     vertex -1.372624e+02 -9.499989e+00  6.000000e+00
     vertex -1.344184e+02 -1.801261e+00  6.000000e+00
   endloop
 endfacet
 facet normal -0.000000e+00  0.000000e+00  1.000000e+00
   outer loop
     vertex -1.377447e+02 -2.017007e+00  6.000000e+00
     vertex -1.372624e+02 -9.499989e+00  6.000000e+00
     vertex -1.360816e+02 -1.908475e+00  6.000000e+00
   endloop
 endfacet
 facet normal -9.979288e-01 -6.432818e-02  0.000000e+00
   outer loop
     vertex -1.377447e+02 -2.017007e+00 -6.000000e+00
     vertex -1.372624e+02 -9.499989e+00 -6.000000e+00
     vertex -1.372624e+02 -9.499989e+00  6.000000e+00
   endloop
 endfacet
 facet normal -9.979288e-01 -6.432818e-02  0.000000e+00
   outer loop
     vertex -1.377447e+02 -2.017007e+00 -6.000000e+00
     vertex -1.372624e+02 -9.499989e+00  6.000000e+00
     vertex -1.377447e+02 -2.017007e+00  6.000000e+00
   endloop
 endfacet
 facet normal  9.979288e-01  6.432818e-02  0.000000e+00
   outer loop
     vertex -1.320476e+02 -1.267110e+01 -6.000000e+00
     vertex -1.327551e+02 -1.695366e+00 -6.000000e+00
     vertex -1.327551e+02 -1.695366e+00  6.000000e+00
   endloop
 endfacet
 facet normal  9.979288e-01  6.432818e-02 -0.000000e+00
   outer loop
     vertex -1.320476e+02 -1.267110e+01 -6.000000e+00
     vertex -1.327551e+02 -1.695366e+00  6.000000e+00
     vertex -1.320476e+02 -1.267110e+01  6.000000e+00
   endloop
 endfacet
 facet normal  0.000000e+00  0.000000e+00 -1.000000e+00
   outer loop
     vertex -1.372624e+02 -9.499989e+00 -6.000000e+00
     vertex -1.320476e+02 -1.267110e+01 -6.000000e+00
     vertex -1.370372e+02 -1.299274e+01 -6.000000e+00
   endloop
 endfacet
 facet normal  0.000000e+00  0.000000e+00 -1.000000e+00
   outer loop
     vertex -1.391296e+02 -1.162450e+01 -6.000000e+00
     vertex -1.372624e+02 -9.499989e+00 -6.000000e+00
     vertex -1.370372e+02 -1.299274e+01 -6.000000e+00
   endloop
 endfacet
 facet normal  0.000000e+00 -0.000000e+00 -1.000000e+00
   outer loop
     vertex -1.327551e+02 -1.695366e+00 -6.000000e+00
     vertex -1.320476e+02 -1.267110e+01 -6.000000e+00
     vertex -1.372624e+02 -9.499989e+00 -6.000000e+00
   endloop
 endfacet
 facet normal  0.000000e+00 -0.000000e+00 -1.000000e+00
   outer loop
     vertex -1.344184e+02 -1.801261e+00 -6.000000e+00
     vertex -1.327551e+02 -1.695366e+00 -6.000000e+00
     vertex -1.372624e+02 -9.499989e+00 -6.000000e+00
   endloop
 endfacet
 facet normal  0.000000e+00 -0.000000e+00 -1.000000e+00
   outer loop
     vertex -1.360816e+02 -1.908475e+00 -6.000000e+00
     vertex -1.344184e+02 -1.801261e+00 -6.000000e+00
     vertex -1.372624e+02 -9.499989e+00 -6.000000e+00
   endloop
 endfacet
 facet normal  0.000000e+00  0.000000e+00 -1.000000e+00
   outer loop
     vertex -1.377447e+02 -2.017007e+00 -6.000000e+00
     vertex -1.360816e+02 -1.908475e+00 -6.000000e+00
     vertex -1.372624e+02 -9.499989e+00 -6.000000e+00
   endloop
 endfacet
 facet normal -6.432818e-02 -9.979288e-01  0.000000e+00
   outer loop
     vertex  1.370372e+02 -1.299274e+01 -6.000000e+00
     vertex  1.320476e+02 -1.267110e+01  6.000000e+00
     vertex  1.320476e+02 -1.267110e+01 -6.000000e+00
   endloop
 endfacet
 facet normal -6.432818e-02 -9.979288e-01  0.000000e+00
   outer loop
     vertex  1.370372e+02 -1.299274e+01 -6.000000e+00
     vertex  1.370372e+02 -1.299274e+01  6.000000e+00
     vertex  1.320476e+02 -1.267110e+01  6.000000e+00
   endloop
 endfacet
 facet normal  7.511291e-01  6.601553e-01  0.000000e+00
   outer loop
     vertex  1.372624e+02 -9.499989e+00 -6.000000e+00
     vertex  1.391296e+02 -1.162450e+01  6.000000e+00
     vertex  1.391296e+02 -1.162450e+01 -6.000000e+00
   endloop
 endfacet
 facet normal  7.511291e-01  6.601553e-01 -0.000000e+00
   outer loop
     vertex  1.372624e+02 -9.499989e+00 -6.000000e+00
     vertex  1.372624e+02 -9.499989e+00  6.000000e+00
     vertex  1.391296e+02 -1.162450e+01  6.000000e+00
   endloop
 endfacet
 facet normal  5.472947e-01 -8.369399e-01  0.000000e+00
   outer loop
     vertex  1.391296e+02 -1.162450e+01 -6.000000e+00
     vertex  1.370372e+02 -1.299274e+01  6.000000e+00
     vertex  1.370372e+02 -1.299274e+01 -6.000000e+00
   endloop
 endfacet
 facet normal  5.472947e-01 -8.369399e-01  0.000000e+00
   outer loop
     vertex  1.391296e+02 -1.162450e+01 -6.000000e+00
     vertex  1.391296e+02 -1.162450e+01  6.000000e+00
     vertex  1.370372e+02 -1.299274e+01  6.000000e+00
   endloop
 endfacet
 facet normal -7.511291e-01  6.601553e-01  0.000000e+00
   outer loop
     vertex -1.372624e+02 -9.499989e+00 -6.000000e+00
     vertex -1.391296e+02 -1.162450e+01 -6.000000e+00
     vertex -1.391296e+02 -1.162450e+01  6.000000e+00
   endloop
 endfacet
 facet normal -7.511291e-01  6.601553e-01  0.000000e+00
   outer loop
     vertex -1.372624e+02 -9.499989e+00 -6.000000e+00
     vertex -1.391296e+02 -1.162450e+01  6.000000e+00
     vertex -1.372624e+02 -9.499989e+00  6.000000e+00
   endloop
 endfacet
 facet normal -5.472947e-01 -8.369399e-01  0.000000e+00
   outer loop
     vertex -1.391296e+02 -1.162450e+01 -6.000000e+00
     vertex -1.370372e+02 -1.299274e+01 -6.000000e+00
     vertex -1.370372e+02 -1.299274e+01  6.000000e+00
   endloop
 endfacet
 facet normal -5.472947e-01 -8.369399e-01  0.000000e+00
   outer loop
     vertex -1.391296e+02 -1.162450e+01 -6.000000e+00
     vertex -1.370372e+02 -1.299274e+01  6.000000e+00
     vertex -1.391296e+02 -1.162450e+01  6.000000e+00
   endloop
 endfacet
 facet normal  6.432818e-02 -9.979288e-01  0.000000e+00
   outer loop
     vertex -1.370372e+02 -1.299274e+01 -6.000000e+00
     vertex -1.320476e+02 -1.267110e+01 -6.000000e+00
     vertex -1.320476e+02 -1.267110e+01  6.000000e+00
   endloop
 endfacet
 facet normal  6.432818e-02 -9.979288e-01  0.000000e+00
   outer loop
     vertex -1.370372e+02 -1.299274e+01 -6.000000e+00
     vertex -1.320476e+02 -1.267110e+01  6.000000e+00
     vertex -1.370372e+02 -1.299274e+01  6.000000e+00
   endloop
 endfacet
endsolid
